<?xml version="1.0" encoding="UTF-8"?>
<svg width="600" height="554" version="1.1" xmlns="http://www.w3.org/2000/svg" xmlns:xlink="http://www.w3.org/1999/xlink">
	<defs>
		<linearGradient id="gradient-body">
			<stop stop-color="#612c75" offset="0"/>
			<stop stop-color="#bf99c3" offset=".9"/>
		</linearGradient>
		<linearGradient id="gradient-centre" x1="0" x2=".5" spreadMethod="reflect" xlink:href="#gradient-body"/>
		<linearGradient id="gradient-lower" x1="0" x2="0" y1="0" y2="1" xlink:href="#gradient-body"/>
		<linearGradient id="gradient-left" x1="0" x2="1" xlink:href="#gradient-body"/>
		<linearGradient id="gradient-right" x1="1" x2="0" xlink:href="#gradient-body"/>
	</defs>
	<path id="outline" fill="white" d="m375 0-6.51 23.2c-8.5 30.3-35.8 51.2-67.3 51.4-30.7-0.211-58.2-21.7-67-51.6l-6.71-22.8-138 54.9v37.1c-26.3 7.04-48.8 19.1-68.6 28.7l-20.8 10.2 11.5 20.1c31.4 54.7 44.2 96.9 44.2 157l0.0106 15.1 67.5 24.6v28.3l178 178 178-178v-28.3l67.7-24.7-0.127-15.3c-0.576-69.4 19.7-104 45.1-158l8.81-18.9-18.5-9.52c-22.3-11.5-44.7-22.1-69-28.8l-9e-3 -37.3z"/>
	<path id="edge" fill="#612c75" d="m389 29.1c-11.1 39.6-47.1 67-88.2 67.2-40.6-0.217-76.3-28.2-87.8-67.2l-102 40.7v39.9c-29.7 4.6-56 18.7-80.7 30.8 32.6 56.8 47.1 104 47.1 167l67.5 24.6v34.4l156 156 156-156v-34.4l67.5-24.6c-0.614-73.9 22.1-114 47.1-167-27.3-14-52.9-25.9-80.7-30.8l-0.01-39.9zm-36.9 194c-2e-3 43.8-4e-3 87.5-5e-3 131-17.1 17.3-34.1 34.6-51.2 51.9-17.1-17.3-34.1-34.6-51.2-51.9 2e-3 -43.8 4e-3 -87.5 5e-3 -131 17.1-17.2 34.1-34.4 51.2-51.6 17.1 17.2 34.1 34.4 51.2 51.6z"/>
	<path id="lower" fill="url(#gradient-lower)" d="m168 227v131l133 133 133-133v-131l-60.3 42.7v93.8l-72.9 73.8-72.9-73.8v-93.8z"/>
	<path id="right" fill="url(#gradient-right)" d="m482 131c22.6 3.35 38.7 9.22 58.8 19.3-19 37.1-37.8 81.7-38.7 141l-52.8 19.2v-94.2l32.7-22.6z"/>
	<path id="left" fill="url(#gradient-left)" d="m120 131c-22.6 3.35-38.7 9.22-58.8 19.3 19 37.1 37.8 81.7 38.7 141l52.8 19.2v-94.2l-32.7-22.6z"/>
	<path id="centre" fill="url(#gradient-centre)" d="m199 56.9-65.3 27.8-0.126 0.0494-0.0669 0.0303v101l94.2 65.3v-36.4l72.9-73.4 72.9 73.4v36.4l94.2-65.3v-101l-0.0669-0.0303-0.126-0.0494-65.3-27.8c-19.6 38.1-58.8 62.1-102 62.3-42.8-0.229-82-24.3-102-62.3z"/>
</svg>
