<?xml version="1.0" encoding="UTF-8"?>
<svg width="600" height="649" version="1.1" xmlns="http://www.w3.org/2000/svg">
	<defs>
		<linearGradient id="gradient-body" x1="0" x2=".5" spreadMethod="reflect">
			<stop stop-color="#807241" offset="0"/>
			<stop stop-color="#e1c47e" offset=".9"/>
		</linearGradient>
	</defs>
	<path id="outline" fill="black" d="m192 41.3-99.1-41.3c-83.9 55.6-99.1 203-91.7 281l11.4-8.31c2.56 18.5 6.19 35.3 11.7 49.4l-18.4 4.2c5.04 45.1 46.9 109 79 145l8.6-7.38 37.4 40.9c-8.04 2.37-23 3.79-38.3 3.99 19.9 45.9 129 114 207 140 77.9-26.2 187-94.3 207-140-15.3-0.199-30.2-1.62-38.3-3.99l37.4-40.9 8.6 7.38c32.2-35.5 74-99.5 79-145l-18.4-4.2c5.47-14.1 9.09-31 11.7-49.4l11.4 8.31c7.4-77.7-7.8-226-91.7-281l-99.1 41.3z"/>
	<path id="background" fill="#807241" d="m438 445c23.3-14.7 37.7-11.2 55.8 1.99-15.8 17.9-31.5 35.9-46.9 54.2-22.2-14-25.4-39.2-8.89-56.2zm92.4-196c15.7-15 27.2-1.45 39.4 8.43 0 0-8.04 39-12.4 54.8-20.2-9.3-42.6-48.4-27-63.3zm-369 196c-23.3-14.7-37.7-11.2-55.8 1.99 15.8 17.9 31.5 35.9 46.9 54.2 22.2-14 25.4-39.2 8.89-56.2zm-92.4-196c-15.7-15-27.2-1.45-39.4 8.43 0 0 8.04 39 12.4 54.8 20.2-9.3 42.6-48.4 27-63.3z"/>
	<path id="body" fill="url(#gradient-body)" d="m180 60.9-37.2-16.7c-20.4-9.17-39.6-17.7-42.5-19-70.9 67-72.3 148-76.9 219 17.9-14.5 39-22.4 56.8-3.32 27 29-7.25 85.7-52.7 100 12 38.2 31.8 72 59.1 103 26.2-30 62.8-34.6 84.7-12.2 41.1 42 6.77 91.8-47.1 91.7 50.5 46.5 112 79.8 176 108 63.8-28.4 125-61.7 176-108-53.8 0.102-88.1-49.7-47.1-91.7 21.9-22.4 58.5-17.7 84.7 12.2 27.4-30.7 47.1-64.5 59.1-103-45.4-14.7-79.7-71.5-52.7-100 17.8-19.1 38.8-11.2 56.8 3.32-4.59-70.1-5.96-152-76.9-219-2.94 1.28-22.1 9.83-42.5 19l-37.2 16.7zM418 264c-16.6-17.6-78.5-30.6-118-30.6s-101 13-118 30.6c28.3 25.1 63.4 42.9 118 42.9 54.6 0 89.7-17.8 118-42.9zm69.9-3.11c0 86.9-79.2 144-188 144s-188-56.9-188-144c0-86.5 77.2-142 188-142s188 55.6 188 142z"/>
	<path id="ring" fill="white" d="m472 296c16.1-103-66.7-163-172-163-105 0-188 59.7-172 163 33.9-52.1 85-75.2 172-75.6 87.1 0.363 138 23.5 172 75.6zm-336 15.7c9.08-14.9 19.5-28.8 32.5-40.5l9.95 9.13c24.8 22.8 78.3 40.7 121 40.7 43.1 0 96.6-17.9 121-40.7l9.95-9.13c12.9 11.8 23.4 25.6 32.5 40.5-38.8 54.2-81.3 79.2-164 79.2s-125-25-164-79.2z"/>
</svg>
