<?xml version="1.0" encoding="UTF-8"?>
<svg width="600" height="395" version="1.1" xmlns="http://www.w3.org/2000/svg">
	<defs>
		<linearGradient id="gradient-body" x1=".05" x2=".5" y1=".7" y2=".5" spreadMethod="reflect">
			<stop stop-color="#b2341a" offset="0"/>
			<stop stop-color="#f59700" offset=".9"/>
		</linearGradient>
	</defs>
	<path id="outline" fill="black" d="m281.6 384.5c-8.557-5.771-27.19-19.6-41.41-30.74s-38.47-26.39-53.9-33.89c-37.79-18.39-90.94-70.65-98.57-96.91-3.095-10.66-15.58-30.98-30.69-49.96-34.97-43.93-57-77.42-57-86.64 0-4.249 4.418-12.14 9.818-17.54 9.38-9.38 12.06-9.818 59.96-9.818h50.14l25.04-17.12c30.61-20.94 67.41-33.43 116.9-39.68 66.82-8.44 143.9 7.969 191.5 40.73l23.29 16.07h51.89c49.76 0 52.29 0.4031 61.71 9.818 5.4 5.4 9.818 13.29 9.818 17.54 0 9.311-22.37 43.21-57.17 86.64-14.1 17.6-27.93 39.2-30.72 48-11.44 36.02-52.89 76.91-103.3 101.9-13.87 6.882-39.97 23.85-58 37.7-29.53 22.69-47.17 34.36-51.95 34.36-0.9376 0-8.706-4.722-17.26-10.49z"/>
	<path id="ring" fill="url(#gradient-body)" d="m383.5 323.4c32.13-11.11 60.94-29.48 85.85-54.73 30.61-31.03 36.3-45.02 36.47-89.66 0.0767-20.9-1.32-43.25-3.103-49.66l-3.243-11.66-9.221 19.9c-11.05 23.84-30.83 40.4-70.86 59.31-46.49 21.96-73.81 27.35-127.3 25.13-37.8-1.566-51.9-4.014-78.27-13.59-60.51-21.98-93.16-46.38-105.2-78.64l-7.729-20.72-4.434 15.97c-2.439 8.785-4.405 31.27-4.369 49.97 0.08491 44.05 7.774 61.07 43.39 96.06 48.33 47.47 97.06 64.72 176.5 62.47 34.48-0.9782 52.4-3.518 71.55-10.14zm-46.81-13.03c5.884-19.64 2.248-29.23-8.828-23.3-4.516 2.417-11.74 3.273-16.06 1.903-10.32-3.275-10.39-20.31-0.1119-25.81 11.79-6.309 15.18-4.936 5.153 2.086-10.38 7.272-11.54 15.9-2.6 19.33 9.89 3.795 21.71-4.752 21.71-15.7 0-5.423 1.35-9.845 3-9.828 6.012 0.0635 5.348 49.97-0.7725 58.13-5.324 7.097-5.465 6.453-1.491-6.81zm-76.74-24.53c5.5-2.783 10-7.706 10-10.94 0-9.126-15.6-9.164-23.84-0.058-7.785 8.603-22.16 11.16-22.16 3.94 0-2.33 1.879-3.075 4.175-1.656 6.074 3.754 15.75-5.66 13.04-12.7-2.795-7.284-21.51-3.806-26.42 4.908-1.759 3.125-5.011 5.682-7.227 5.682-2.215 0-1.277-3.927 2.085-8.727 4.508-6.436 4.964-10.11 1.737-14-3.316-3.995-2.803-5.273 2.114-5.273 3.569 0 6.49 1.8 6.49 4 0 2.2 5.25 4 11.67 4s12.38 2.154 13.26 4.787c0.8775 2.633 7.744 4.883 15.26 5 9.861 0.154 14.05 2.215 15.07 7.406 1.886 9.661-6.296 18.82-16.75 18.75-7.911-0.0548-7.806-0.4152 1.49-5.118zm100.4-11.82c-0.1984-6.05-2.161-11-4.361-11-2.2 0-4-1.993-4-4.428 0-2.466 2.915-3.309 6.578-1.904 3.618 1.388 9.658-0.2624 13.42-3.668 3.764-3.406 9.626-5.125 13.03-3.82 13.37 5.132 9.841 29.95-4.226 29.7-6.278-0.1123-6.262-0.4354 0.1988-4.199 6.881-4.008 9.433-15.91 4.474-20.87-5.045-5.045-17.38 5.686-21.02 18.28-3.667 12.69-3.736 12.72-4.09 1.908zm45.01-13.88c-0.3472-5.981-2.609-11.53-5.025-12.34-2.416-0.8055-3.425-3.032-2.24-4.948 1.184-1.916 4.563-2.559 7.509-1.428 2.946 1.13 6.432-0.7483 7.746-4.175 1.315-3.426 6.514-6.23 11.55-6.23 5.04 0 11.41-3.6 14.16-8 6.445-10.32 17.08-10.28 19.79 0.0843 1.661 6.352 3.295 7.104 7.626 3.51 5.899-4.895 7.33-0.6461 2.395 7.112-2.827 4.445-56.41 37.3-60.82 37.29-1.135-2e-3 -2.348-4.896-2.695-10.88zm25.39-11.65c1.268-3.304 0.1384-8.136-2.51-10.74-3.719-3.654-6.526-2.638-12.33 4.464-9.605 11.75-6.535 22.49 4.709 16.47 4.304-2.304 8.863-6.892 10.13-10.2zm20.44-6.269c5.949-5.949 6.246-17.83 0.5339-21.36-5.157-3.187-15.43 9.428-15.61 19.16-0.1464 8.049 8.03 9.243 15.07 2.2zm-294.8 5.974c-15.63-10.35-28.43-20.04-28.43-21.53 0-1.489 3.6-3.649 8-4.8 5.034-1.316 8-5.456 8-11.17 0-8.457 0.4761-8.631 7-2.56 20.91 19.45 25.64 22.89 34.61 25.14 12.65 3.176 16.31 12.99 8.186 21.97-5.89 6.508-5.818 7.22 0.9036 8.958 6.131 1.585 5.927 1.962-1.271 2.351-4.715 0.2552-21.37-8.008-37-18.36zm34.83-2.174c0.9843-5.164-1.303-7-8.723-7-10.93 0-16.53 5.525-12.39 12.23 4.021 6.506 19.61 2.645 21.11-5.229zm-24.1-14.46c-1.407-7.308-12.3-10.51-22.38-6.584-5.998 2.336-5.723 3.487 2.429 10.14 10.29 8.392 21.86 6.331 19.95-3.554zm82.61 13.33c4.27-3.23 9.565-5.873 11.76-5.873s0.506 2.643-3.765 5.873c-4.27 3.23-9.565 5.873-11.76 5.873s-0.506-2.643 3.765-5.873zm94.57 4.127c-0.1446-7.001 10.31-18 17.1-18 3.607 0 6.559 2.7 6.559 6s-1.906 6-4.236 6-3.124-1.8-1.764-4c5.081-8.222-5.275-3.64-11.3 5-3.453 4.95-6.315 7.2-6.361 5zm73-28.67c1.467-1.467 3.867-1.467 5.333 0 1.467 1.467 0.2666 2.667-2.667 2.667-2.933 0-4.133-1.2-2.667-2.667zm-233.3-5.333c0-2.933 1.2-4.133 2.667-2.667 1.467 1.467 1.467 3.867 0 5.333-1.467 1.467-2.667 0.2667-2.667-2.667zm245.3-2.667c1.467-1.467 3.867-1.467 5.333 0 1.467 1.467 0.2666 2.667-2.667 2.667-2.933 0-4.133-1.2-2.667-2.667zm-9.333-3.333c0-1.1 0.9-2 2-2 1.1 0 2 0.9 2 2s-0.9 2-2 2c-1.1 0-2-0.9-2-2zm43.9-53.9c17.75-17.75 22.19-29.72 18.44-49.68-13.45-71.71-158.5-116-268.6-82.07-49.57 15.28-76.14 33-89.91 59.99-14.4 28.23-6.743 56.39 20.9 76.87l10.73 7.946 18.9-16.64c41.52-36.55 98.64-54.08 148.4-45.56 32.24 5.523 76.63 26.89 101.2 48.72 9.9 8.788 19.35 16.05 21 16.15 1.65 0.0939 10.15-6.984 18.9-15.73zm-300.4-41.45c3.569-4.323 3.919-6.65 1-6.65-8.126 0-4.68-15.62 4.51-20.44 4.95-2.599 10.44-7.162 12.2-10.14 1.759-2.979 7.609-5.416 13-5.416 5.391 0 9.801-1.8 9.801-4s1.744-4 3.874-4c2.131 0 2.83 2.723 1.552 6.051-1.277 3.328-0.3152 8.469 2.137 11.42 3.524 4.246-0.7639 8.639-20.45 20.95-30.12 18.83-34.78 20.9-27.62 12.23zm17.45-12.17c8.277-6.285 5.234-10.48-7.604-10.48-8.801 0-12.53 7.466-6.667 13.33 3.718 3.718 6.293 3.202 14.27-2.856zm22.57-14.09c7.073-4.48 2.277-12.39-7.512-12.39-8.586 0-13.66 6.084-10 12 3.024 4.894 10.15 5.051 17.51 0.386zm203.4 15.02c-14.82-9.026-26.95-18.29-26.95-20.58 0-2.29 1.123-3.04 2.497-1.667 1.373 1.373 5.701-1.461 9.618-6.299 6.624-8.181 7.638-8.342 14.5-2.303 4.06 3.571 11.27 7.674 16.01 9.118 4.747 1.444 9.64 5.257 10.87 8.473 1.234 3.216 5 5.848 8.37 5.848 3.369 0 6.126 1.8 6.126 4 0 2.2-1.858 4-4.129 4-2.271 0-5.445 3.559-7.055 7.909-2.754 7.446-4.504 6.948-29.87-8.503zm23.46-5.219c-2.523-10.05-14.4-14.59-14.4-5.501 0 5.631 12.51 20.13 15.12 17.53 1.011-1.011 0.6878-6.422-0.7184-12.02zm-18.4-7.386c0-5.764-7.815-14.8-12.8-14.8-4.854 0-3.825 9.775 1.6 15.2 6.281 6.281 11.2 6.106 11.2-0.4zm-139.2 4.2c-2.275-2.75-5.903-14.9-8.064-27-3.62-20.27-3.453-21.29 2.134-13 6.814 10.12 25.09 12.45 25.09 3.199 0-3.191-3.15-7.636-7-9.878-6.139-3.575-6.199-4.092-0.4898-4.199 3.581-0.0669 8.751 2.578 11.49 5.878 6.671 8.038-1.349 18-14.49 18-10.51 0-12.8 10.37-5.369 24.26 4.687 8.758 2.907 10.24-3.297 2.737zm96.56-16.88c2.29-5.968-6.888-18.12-13.69-18.12-5.348 0-4.571 9.492 1.286 15.7 4.035 4.277 3.842 4.954-1 3.505-3.3-0.9874-8.348-6.612-11.22-12.5-5.025-10.31-12.52-13.63-18.12-8.029-1.471 1.471 0.4785 6.234 4.333 10.58 5.09 5.744 5.444 7.41 1.294 6.087-9.955-3.175-14.41-13.97-8.634-20.93 3.809-4.59 7.133-5.211 12.51-2.335 4.024 2.154 11.83 3.916 17.34 3.916 5.515 0 11.09 1.721 12.39 3.825 1.3 2.104 4.824 2.881 7.831 1.727 3.007-1.154 6.656-0.1753 8.108 2.175 1.452 2.35 0.7344 4.273-1.595 4.273-2.33 0-4.236 3.6-4.236 8 0 4.4-1.993 8-4.428 8-2.435 0-3.412-2.648-2.17-5.884zm-205.4-0.1158c0-1.1 0.9-2 2-2s2 0.9 2 2c0 1.1-0.9 2-2 2s-2-0.9-2-2zm56.42-3.493c-7.029-8.469-0.9502-18.51 11.21-18.51 5.925 0 12.57-1.8 14.77-4 2.667-2.667 4 0.5826 4 9.748 0 12.72-0.4075 13.17-5.427 6-7.163-10.23-20.97-10.25-20.97-0.04116 0 4.239 3.15 8.53 7 9.536 5.906 1.543 5.982 1.902 0.4898 2.293-3.581 0.2552-8.562-2.008-11.07-5.029zm-44.42-4.507c0-1.1 0.9-2 2-2 1.1 0 2 0.9 2 2 0 1.1-0.9 2-2 2-1.1 0-2-0.9-2-2zm242-2c-1.36-2.2-0.5659-4 1.764-4s4.236 1.8 4.236 4-0.7938 4-1.764 4c-0.9702 0-2.876-1.8-4.236-4zm-250-2c0-1.1 0.9-2 2-2s2 0.9 2 2c0 1.1-0.9 2-2 2s-2-0.9-2-2zm63.16-22.61c-4.964-12.59 11.81-16.31 21.35-4.736 4.963 6.016 4.651 6.208-3.247 2-11.44-6.093-12.42-5.93-14.09 2.345-1.28 6.349-1.654 6.385-4.018 0.3911zm113.8-3.391c-2.748-4.4-3.614-8-1.924-8 1.689 0 5.32 3.6 8.068 8 2.748 4.4 3.614 8 1.924 8s-5.32-3.6-8.068-8z"/>
	<path id="triangle" fill="#b2341a" d="m322.3 358.3c9.71-6.973 17.65-12.82 17.65-13-3e-3 -0.1771-17.85-0.3219-39.67-0.3219s-39.15 0.5105-38.53 1.135c7.747 7.721 33.45 24.67 37.55 24.75 2.94 0.0612 13.29-5.594 23-12.57zm-225.1-266.3 6.918-13h-39.87c-23.71 0-40.93 1.714-42.48 4.231-2.859 4.627 9.427 24.73 37.63 61.57l18.22 23.8 6.332-31.8c3.482-17.49 9.445-37.65 13.25-44.8zm443.5 52c27.19-34.81 40.26-56.07 37.36-60.77-3.052-4.938-82.14-5.93-82.14-1.031 0 1.76 1.624 4.91 3.609 7 6.364 6.702 15.94 40.27 16.93 59.32 0.526 10.16 2.154 18.48 3.619 18.48 1.464 0 10.75-10.35 20.63-23zm-156.9 49.65c16.42-5.919 31.72-12.65 34-14.95 10.05-10.17-57.32-49.11-98.09-56.69-40.95-7.616-92.9 7.643-129.9 38.17l-14.77 12.18 15.47 8.091c8.506 4.45 28.97 12.24 45.47 17.32 42.62 13.11 104.9 11.38 147.9-4.107z"/>
</svg>
