<?xml version="1.0" encoding="UTF-8"?>
<svg width="600" height="594" version="1.1" xmlns="http://www.w3.org/2000/svg">
	<defs>
		<linearGradient id="gradient-body" x1="0" x2=".5" y1="1" y2=".5" spreadMethod="reflect">
			<stop stop-color="#596771" offset="0"/>
			<stop stop-color="#c3e2ee" offset=".9"/>
		</linearGradient>
	</defs>
	<path id="outline" fill="black" d="m122 537 127-87.4 50.8 48.8 50.8-48.8 127 87.4c-56 38.3-115 57.4-178 57.4s-122-19.1-178-57.4zm214-239-35.8-36.6-35.8 36.6 35.8 35zm-275-177 85.7 126-49.1 51.6 49.1 49.1-85.7 128c-80.4-118-80.4-236 0-355zm479 0c80.4 118 80.4 236 0 355l-85.7-129 49.9-48.3-49.9-51.6zm-290 25-127-88.2c56-38.3 115-57.4 178-57.4l1.88 0.00499c62 0.379 121 19.5 176 57.4l-127 88.2-50.8-50.8zm1.66 275-245 171 169-247-45.8-46.6 45.8-49.1-169-245 245 172 49.1-50.8 49.1 50.8 245-172-169 245 47.4 49.1-47.4 46.6 169 247-245-171-49.1 48.3z"/>
	<path id="body" fill="url(#gradient-body)" d="m301 240 57 58.3-58.4 57-58.4-57 58.4-59.8zm-106 10.3-44.3 47.4 44.3 45.1-127 185 184-129 47.4 46.6 47.4-46.6 184 129-127-186 45.7-44.9-45.5-47.1 126-183-183 129-47.1-48.7-47.1 48.7-183-129zm387 47.7a282 282 0 0 0-42.8-149l-66.7 96.3 52.6 52.6-52.6 52.6 66.8 96.4a282 282 0 0 0 42.7-149zm-283 282a282 282 0 0 0 149-42.8l-96.3-66.7-52.6 52.6-52.6-52.6-96.4 66.8a282 282 0 0 0 149 42.7zm-283-282a282 282 0 0 0 42.8 149l66.7-96.3-52.6-52.6 52.6-52.6-66.8-96.4a282 282 0 0 0-42.7 149zm283-283a282 282 0 0 0-149 42.8l96.3 66.7 52.6-52.6 52.6 52.6 96.4-66.8a282 282 0 0 0-149-42.7z"/>
</svg>
