<?xml version="1.0" encoding="UTF-8"?>
<svg width="600" height="596" version="1.1" viewBox="0 0 600 596" xmlns="http://www.w3.org/2000/svg" xmlns:xlink="http://www.w3.org/1999/xlink">
	<defs>
		<linearGradient id="gradient-body" x1="0" x2=".5" spreadMethod="reflect">
			<stop stop-color="#596771" offset="0"/>
			<stop stop-color="#c3e2ee" offset=".9"/>
		</linearGradient>
	</defs>
	<path id="outline" fill="black" d="m300 0c-33.8 11.9-80.2 49.2-105 72-31-6.87-55.3-15-81.5-28.5l-113 96.3c47.6 46.7 55.5 98.2 72 158-2.35 12.4-4.21 25-5.63 37.5-22.7-33.2-38.6-72.1-53.3-109-18.2 116-11.7 238 53.2 320 9.05-37.3 17.9-71.7 34.1-105 49.2 4.35 70.9 20.1 106 42 40.7 25.4 73.6 66.1 93.8 106 26-47.3 44.6-74.1 93.2-104 54.7-34 63.7-35.3 106-44.4 15.1 31.6 24.3 63.8 34.6 97.7 76.5-89.6 67.7-210 50.8-314-11.2 39.5-25.5 82-51.2 110-1.42-12.6-3.28-25.1-5.63-37.5 6.24-20.4 10.2-40.7 15.8-59.7 5.18-17.7 11.6-35.1 20.2-51.4 6.69-12.8 14.8-24.9 24.7-35.4 3.24-3.46 6.65-6.96 9.94-10.5 0.455-0.48 0.911-0.96 1.37-1.44l-113-96.3c-26.3 15.3-54 22.9-82.6 27.5-33.8-28-71.9-57.1-104-70.9z"/>
	<path id="mask" fill="white" d="m293 20.2v149c-41.6 11.4-62.4 38.8-62.4 82.3-15.1-12.3-22.7-34.5-22.7-66.7-10.4 36-4.73 71 17 105-86.1 51.1-141 124-165 220-34.1-52-47.3-129-39.7-231 15.1 42.6 34.5 72.9 58.2 90.8 8.52-158 79.9-274 214-349zm14.2 0c134 74.7 206 191 214 349 23.7-18 43-48.3 58.2-90.8 7.57 102-5.68 179-39.7 231-23.7-95.6-78.5-169-165-220 21.8-34.1 27.4-69.1 17-105 0 32.2-7.57 54.4-22.7 66.7 0-43.5-20.8-71-62.4-82.3z"/>
	<path id="shield" fill="url(#gradient-body)" d="m214 474c3.78-20.8 14.7-38.8 32.6-53.9 0 0 7.1-24.1 7.1-43.8 0-43.2-14.8-69.7-14.8-69.7h19.9v-24.1c-15.1-18.9-18-40.2-8.52-63.9 10.4-21.8 27-32.6 49.7-32.6l1.19 0.0114c22.1 0.375 38.3 11.3 48.5 32.6 9.46 23.7 6.62 44.9-8.52 63.9v24.1h19.9s-14.3 36.1-14.3 69.7c0 19.2 6.43 43.3 6.43 43.3 18 15.1 28.9 33.1 32.6 53.9-32.2 18.9-68.8 53.5-85.8 88.5-20-33.6-58.2-71.2-86-88zm-61.6-104c31.2 10.4 53 32.6 65.3 66.7-6.56 9.31-10.9 20-12.8 31.2-30.3-22.7-61-36-92.2-39.7 9.46-20.8 22.7-40.2 39.7-58.2zm295 0c17 18 30.3 37.4 39.7 58.2-31.2 3.78-62 17-92.2 39.7-1.89-11.4-6.15-21.8-12.8-31.2 12.3-34.1 34.1-56.3 65.3-66.7zm-223-61s14.4 26.2 14.8 67.1c0.225 19.7-7.75 39.3-7.75 39.3-3.78 3.78-6.62 7.1-8.52 9.93-12.3-31.2-32.6-53.5-61-66.7 17-18.9 37.8-35.5 62.4-49.7zm150 0c24.6 14.2 45.4 30.7 62.4 49.7-28.4 13.2-48.7 35.5-61 66.7-1.89-2.84-4.73-6.15-8.52-9.93 0 0-7.76-18.9-7.5-39.3 0.444-34.9 14.6-67.1 14.6-67.1zm-260-248c21.8 11.4 44.5 18.9 68.1 22.7-53 48.3-88 109-105 182-12.3-56.8-31.2-98.4-56.8-125zm369 0 93.7 79.5c-25.5 26.5-44.5 68.1-56.8 125-17-72.9-52-133-105-182 23.7-3.78 46.4-11.4 68.1-22.7z"/>
</svg>
