<?xml version="1.0" encoding="UTF-8"?>
<svg width="600" height="594" version="1.1" xmlns="http://www.w3.org/2000/svg">
	<defs>
		<linearGradient id="gradient-body" x1="0" x2=".5" spreadMethod="reflect">
			<stop stop-color="#612c75" offset="0"/>
			<stop stop-color="#bf99c3" offset=".9"/>
		</linearGradient>
	</defs>
	<path id="outline" fill="white" d="m554 221c-7.12 24.8-15.6 50.3-27 71.4 13.3-59.1 18.7-94.5 72.8-149l-123-105-8.02 4.67c-21.1 12.3-43.5 18.8-67.2 23.1-30.8-25.3-65-51.1-96.7-64l-4.68-1.91-4.75 1.72c-34.1 12.4-72.8 43.8-97.3 65.8-25.1-5.93-45.1-12.8-66.8-24l-7.81-4.03-123 105 10.2 10c38.1 37.4 47.1 78.3 60.3 128-9.9-19.9-18.8-40.8-26.7-61.7-5.23-13.7-22.7-12.8-25.1 2.82-17.3 110-11.9 228 52.5 310l16.7 21.1 6.33-26.1c7.65-31.5 15.1-60.1 27.1-87.2 36.9 4.8 53.6 17.1 84.4 36.3 35.5 22.1 65.1 58.6 83 94l11.2 22.2 12-21.8c24.1-43.8 38.8-65.6 82.6-92.5l0.0512-0.033c45.3-28.2 55-31.2 84.6-37.6 11.1 25.4 19 51.8 27.6 80.1l6.96 22.9 15.5-18.2c75.7-88.6 67.3-206 50.5-305-2.92-17.1-21.3-16.2-25.5-1.47z"/>
	<path id="edge" fill="#612c75" d="m201 81.9c-29-6.43-51.8-14-76.3-26.7l-106 90.1c44.6 43.7 51.9 91.9 67.4 148-2.2 11.6-3.94 23.4-5.27 35.1-21.2-31.1-36.1-67.5-49.9-102-17 109-11 223 49.8 300 8.47-34.9 16.8-67.1 31.9-98.3 46 4.07 66.4 18.8 99.2 39.3 38.1 23.8 68.9 61.9 87.8 99.2 24.3-44.3 41.7-69.4 87.2-97.3 51.2-31.8 59.6-33 99.2-41.6 14.1 29.6 22.7 59.7 32.4 91.4 71.6-83.9 63.4-197 47.5-294-10.5 37-23.9 76.7-47.9 103-1.33-11.8-3.07-23.5-5.27-35.1 15.4-60.8 18.6-98.6 67.4-148l-106-90.1c-24.6 14.3-50.5 21.4-77.3 25.7-31.6-26.2-67.7-53.4-98.1-65.9-32 11.6-75.1 46.5-98.3 67.9z"/>
	<path id="mask" fill="white" d="m293 33.4v139c-38.9 10.7-58.4 36.3-58.4 77-14.1-11.5-21.2-32.3-21.2-62.4-9.73 33.7-4.43 66.5 15.9 98.3-80.6 47.8-132 116-154 206-31.9-48.7-44.3-121-37.2-216 14.1 39.9 32.3 68.2 54.5 85 7.97-148 74.8-256 200-327zm13.3 0c125 69.9 193 179 200 327 22.2-16.8 40.2-45.2 54.5-85 7.09 95.5-5.32 168-37.2 216-22.2-89.5-73.5-158-154-206 20.4-31.9 25.6-64.7 15.9-98.3 0 30.1-7.09 50.9-21.2 62.4 0-40.7-19.5-66.5-58.4-77z"/>
	<path id="shield" fill="url(#gradient-body)" d="m219 458c3.54-19.5 13.8-36.3 30.5-50.4 0 0 6.65-22.6 6.65-41 0-40.4-13.9-65.2-13.9-65.2h18.6v-22.6c-14.1-17.7-16.8-37.6-7.97-59.8 9.73-20.4 25.3-30.5 46.5-30.5l1.11 0.0107c20.7 0.351 35.8 10.6 45.4 30.5 8.85 22.2 6.2 42-7.97 59.8v22.6h18.6s-13.4 33.8-13.4 65.2c0 18 6.02 40.5 6.02 40.5 16.8 14.1 27 31 30.5 50.4-30.1 17.7-64.4 50.1-80.3 82.8-18.7-31.4-54.5-66.6-80.5-82.4zm-57.7-97.3c29.2 9.73 49.6 30.5 61.1 62.4-6.14 8.71-10.2 18.7-12 29.2-28.4-21.2-57.1-33.7-86.3-37.2 8.85-19.5 21.2-37.6 37.2-54.5zm276 0c15.9 16.8 28.4 35 37.2 54.5-29.2 3.54-58 15.9-86.3 37.2-1.77-10.7-5.76-20.4-12-29.2 11.5-31.9 31.9-52.7 61.1-62.4zm-209-57.1s13.5 24.5 13.9 62.8c0.211 18.4-7.25 36.8-7.25 36.8-3.54 3.54-6.2 6.65-7.97 9.29-11.5-29.2-30.5-50.1-57.1-62.4 15.9-17.7 35.4-33.2 58.4-46.5zm140 0c23 13.3 42.5 28.7 58.4 46.5-26.6 12.4-45.6 33.2-57.1 62.4-1.77-2.66-4.43-5.76-7.97-9.29 0 0-7.26-17.7-7.02-36.8 0.416-32.7 13.7-62.8 13.7-62.8zm-243-232c20.4 10.7 41.7 17.7 63.7 21.2-49.6 45.2-82.4 102-98.3 170-11.5-53.2-29.2-92.1-53.2-117zm345 0 87.7 74.4c-23.9 24.8-41.7 63.7-53.2 117-15.9-68.2-48.7-124-98.3-170 22.2-3.54 43.4-10.7 63.7-21.2z"/>
</svg>
