<?xml version="1.0" encoding="UTF-8"?>
<svg width="600" height="606" version="1.1" xmlns="http://www.w3.org/2000/svg">
	<defs>
		<linearGradient id="gradient-body" x1="0" x2=".5" spreadMethod="reflect">
			<stop stop-color="#612c75" offset="0"/>
			<stop stop-color="#bf99c3" offset=".9"/>
		</linearGradient>
	</defs>
	<path id="outline" fill="white" d="m300 0-4.74 2.69c-35.9 20.3-71.1 46.3-97.2 71.4l-16.5 0.0484c-16.7 0.0504-33.3-5.72-44.2-16.2l-13.7-13.2-124 95.8 15 17.5c26.4 30.9 40.2 72.4 42.3 117l2.21 47.4c-3.52-6.4-7.2-13.6-11.2-22.5l-36.8-81.2-5.18 89c-5.47 94 3.41 145 27 208l0.013 0.0335 0.0801 0.211 0.0354 0.0857 18.6 48 22.2-44.9c11.1-22.4 22.3-44.8 34.4-66.3 83.7 10.4 140 70.2 183 140l8.13 13.1 8.09-13.1c42.7-69.1 99.4-129 183-140 12.1 21.6 23.3 43.9 34.4 66.4l22.2 44.9 18.6-48.2 0.0448-0.117 0.0112-0.0317c23.6-63.2 32.5-114 27-208l-5.18-89-36.8 81.2c-4.03 8.9-7.71 16.1-11.2 22.5l2.21-47.4c2.1-45 15.9-86.5 42.3-117l15-17.5-124-95.8-13.7 13.2c-10.9 10.5-27.4 16.3-44.2 16.2l-16.7-0.0484c-32.8-30.4-61.3-50.8-97-71.4zm-0.114 22.1c33.5 19.7 60.1 38.8 91.7 68.5l2.74 2.58 24.1 0.0708c21.1 0.0635 42.3-6.91 57.5-21.6v0.0019l1.82-1.76 94.8 73.4-1.99 2.33c-29.7 34.8-44.6 80.5-46.8 129l-2.87 61.6 0.255 1.2c1.08 5.05 2.09 10.1 3.04 15.2l3.67 19.8 13-15.4c9.31-11 18.1-26.1 28.4-48.8l4.89-10.8 0.688 11.8c5.38 92.4-2.83 138-25.8 200l-0.0168 0.0466c-2e-3 6e-3 -4e-3 0.0111-6e-3 0.0168l-2.95 7.61-2.94-5.96c-12-24.4-24.4-49.1-38-72.9l-3.05-5.34-6.12 0.567c-90 8.34-151 68.8-196 137-45-68.4-106-128-196-137l-6.13-0.572-3.05 5.34c-13.6 23.9-25.9 48.6-38 72.9l-2.94 5.96-2.97-7.68-0.0074-0.0205-0.0112-0.0279c-23-61.5-31.2-108-25.8-200l0.688-11.8 4.89 10.8c10.3 22.7 19.1 37.8 28.4 48.8l13 15.4 3.67-19.8c0.947-5.12 1.96-10.2 3.04-15.2l0.255-1.2-2.87-61.6c-2.26-48.4-17.1-94.1-46.8-129l-1.99-2.33 94.8-73.4 1.82 1.76v-0.0019c15.2 14.7 36.4 21.6 57.5 21.6l24.2-0.0708 2.77-2.73c23.7-23.3 57.2-48.5 91.4-68.3z"/>
	<path id="edge" fill="#612c75" d="m202 83.6-20.3 0.0604c-18.9 0.057-37.8-6.31-50.8-18.9l-7.76-7.49-109 84.6 8.48 9.94c28 32.9 42.4 76.4 44.6 123l2.81 60.3c-1.09 5.13-2.12 10.3-3.09 15.5-8.42-9.96-16.9-24.3-27-46.6l-20.9-46-2.93 50.4c-5.42 93.2 3.12 142 26.4 204l0.0253 0.0662 0.0273 0.0662 10.8 27.8 12.6-25.4c12-24.4 24.3-48.9 37.7-72.4 91.2 8.54 152 72.7 197 145 44.4-72 105-137 197-145 13.4 23.5 25.7 48.1 37.7 72.4l12.6 25.4 10.8-27.9 0.0253-0.0662c23.3-62.4 31.9-111 26.4-204l-2.93-50.4-20.9 46c-10.1 22.3-18.6 36.6-27 46.6-0.964-5.21-2-10.4-3.09-15.5l2.81-60.3c2.18-46.7 16.5-90.3 44.6-123l8.48-9.94-109-84.6-7.76 7.49c-13 12.6-31.9 18.9-50.8 18.9l-20.3-0.0604c-33.6-31.5-61.8-51.7-98.1-72.6-36.5 20.7-72.5 47.5-98.1 72.6z"/>
	<path id="shield" fill="url(#gradient-body)" d="m370 484c-16.3-35.9-30.1-75.6-24.5-116 1.7-19 13.7-36.1 24.3-50-13.3-4.83-27.7-6.36-41.6-9.42 29.9-27.6 30-39 30-54.9 0-28.1-22.8-58.8-58.6-58.8-35.8 0-58.6 30.7-58.6 58.8 0 15.9 0.108 27.3 30 54.9-13.9 3.05-28.3 4.58-41.6 9.42 10.6 13.9 22.6 31 24.3 50 5.67 40-8.22 79.6-24.5 116 8.77 5.69 48.6 45.8 70.3 80.7 21.7-34.9 61.6-75 70.3-80.7zm114-52.2c-12.8-18.1-24.2-37.7-39.4-53.8-33.9 18.2-53.4 56.6-57.4 93.4 30.7-21.8 71.8-37.3 96.8-39.6zm-50.3-67.3c-14.2-12.6-27.8-28.3-45.1-36.4-41.2 23.8-25.9 83.7-15.4 119 13.6-43.9 34.1-67.7 60.6-82.9zm134-220-90.4-70c-15.8 15.2-37.8 22.4-59.5 22.4 46.9 51 79.7 113 102 178 2.28-48.9 17.3-95.3 47.5-131zm-453 288c12.8-18.1 24.2-37.7 39.4-53.8 33.9 18.2 53.4 56.6 57.4 93.4-30.7-21.8-71.8-37.3-96.8-39.6zm50.3-67.3c14.2-12.6 27.8-28.3 45.1-36.4 41.2 23.8 25.9 83.7 15.4 119-13.6-43.9-34.1-67.7-60.6-82.9zm-134-220 90.4-70c15.8 15.2 37.8 22.4 59.5 22.4-46.9 51-79.7 113-102 178-2.28-48.9-17.3-95.3-47.5-131z"/>
	<path id="mask" fill="white" d="m546 508c22.9-61.4 31-107 25.7-199-16.5 36.5-29.9 54.5-46.8 65.7-23.2-158-106-281-217-345v147c42.3 11.3 73.5 38.4 66.7 92.7 16.8-19.8 22.3-46.3 22.3-80.9 12.6 37.8 5.62 82.6-19.9 113 26.1 11 49.5 29.4 69.1 50.3 43.7 44.7 72 102 99.1 157zm-492 0c-22.9-61.4-31-107-25.7-199 16.5 36.5 29.9 54.5 46.8 65.7 23.2-158 106-281 217-345v147c-42.3 11.3-73.5 38.4-66.7 92.7-16.8-19.8-22.3-46.3-22.3-80.9-12.6 37.8-5.62 82.6 19.9 113-26.1 11-49.5 29.4-69.1 50.3-43.7 44.7-72 102-99.1 157z"/>
</svg>
