<?xml version="1.0" encoding="UTF-8"?>
<svg width="600" height="605" version="1.1" xmlns="http://www.w3.org/2000/svg">
	<defs>
		<linearGradient id="gradient-body" x2=".5" spreadMethod="reflect">
			<stop stop-color="#596771" offset="0"/>
			<stop stop-color="#c3e2ee" offset=".9"/>
		</linearGradient>
	</defs>
	<path id="outline" fill="black" d="m197 76.1-21.3 0.0633c-19.8 0.0597-39.6-6.62-53.3-19.8l-8.13-7.85-114 88.7 8.89 10.4c29.4 34.4 44.4 80.1 46.7 129l2.95 63.2c-1.14 5.37-2.23 10.8-3.24 16.2-8.83-10.4-17.7-25.5-28.3-48.8l-21.9-48.2-3.07 52.8c-5.68 97.7 3.27 148 27.7 214l0.0265 0.0694 0.0286 0.0694 11.3 29.2 13.2-26.6c12.6-25.5 25.4-51.2 39.5-75.9 95.6 8.95 159 76.2 206 152 46.6-75.4 110-143 206-152 14.1 24.7 26.9 50.4 39.5 75.9l13.2 26.6 11.3-29.2 0.0265-0.0694c24.4-65.4 33.4-116 27.7-214l-3.08-52.8-21.9 48.2c-10.6 23.4-19.4 38.4-28.3 48.8-1.01-5.46-2.09-10.9-3.24-16.2l2.95-63.2c2.28-49 17.3-94.6 46.7-129l8.89-10.4-114-88.7-8.13 7.85c-13.7 13.2-33.5 19.9-53.3 19.8l-21.3-0.0633c-35.2-33.1-64.8-54.2-103-76.1-38.2 21.7-76 49.8-103 76.1z"/>
	<path id="shield" fill="url(#gradient-body)" d="m374 495c-17-37.7-31.6-79.2-25.6-121 1.78-19.9 14.3-37.8 25.4-52.4-14-5.07-29.1-6.67-43.6-9.87 31.4-29 31.5-40.9 31.5-57.5 0-29.5-23.9-61.6-61.4-61.6-37.5 0-61.4 32.1-61.4 61.6 0 16.7 0.113 28.6 31.5 57.5-14.5 3.2-29.6 4.8-43.6 9.87 11.1 14.5 23.6 32.5 25.4 52.4 5.94 41.9-8.61 83.4-25.6 121 9.19 5.97 51 48 73.7 84.6 22.8-36.6 64.5-78.6 73.7-84.6zm119-54.7c-13.4-19-25.4-39.5-41.3-56.4-35.5 19.1-56 59.4-60.1 97.9 32.2-22.9 75.2-39 101-41.5zm-52.7-70.5c-14.9-13.2-29.1-29.7-47.3-38.1-43.1 24.9-27.1 87.8-16.2 125 14.3-46 35.7-70.9 63.5-86.9zm141-231-94.7-73.4c-16.5 16-39.6 23.5-62.4 23.5 49.1 53.4 83.5 119 107 187 2.39-51.2 18.2-99.8 49.8-137zm-474 301c13.4-19 25.4-39.5 41.3-56.4 35.5 19.1 56 59.4 60.1 97.9-32.2-22.9-75.2-39-101-41.5zm52.7-70.5c14.9-13.2 29.1-29.7 47.3-38.1 43.1 24.9 27.1 87.8 16.2 125-14.3-46-35.7-70.9-63.5-86.9zm-141-231 94.7-73.4c16.5 16 39.6 23.5 62.4 23.5-49.1 53.4-83.5 119-107 187-2.39-51.2-18.2-99.8-49.8-137z"/>
	<path id="mask" fill="white" d="m558 521c24.1-64.3 32.5-112 26.9-208-17.3 38.2-31.3 57.1-49 68.9-24.3-166-111-294-227-362v154c44.3 11.9 77 40.3 69.9 97.2 17.6-20.8 23.3-48.5 23.3-84.8 13.2 39.6 5.89 86.6-20.8 119 27.3 11.5 51.9 30.8 72.4 52.7 45.8 46.9 75.4 107 104 165zm-516 0c-24.1-64.3-32.5-112-26.9-208 17.3 38.2 31.3 57.1 49 68.9 24.3-166 111-294 227-362v154c-44.3 11.9-77 40.3-69.9 97.2-17.6-20.8-23.3-48.5-23.3-84.8-13.2 39.6-5.89 86.6 20.8 119-27.3 11.5-51.9 30.8-72.4 52.7-45.8 46.9-75.4 107-104 165z"/>
</svg>
