<?xml version="1.0" encoding="UTF-8"?>
<svg width="600" height="381" version="1.1" xmlns="http://www.w3.org/2000/svg">
	<defs xmlns="http://www.w3.org/2000/svg">
		<linearGradient id="gradient-body" x1="0" x2="0.5" spreadMethod="reflect">
			<stop stop-color="#596771" offset="0"/>
			<stop stop-color="#c3e2ee" offset=".9"/>
		</linearGradient>
	</defs>
	<path id="outline" fill="black" d="m284 0-2.57 0.92c-52.2 16.6-76.6 41-98 60.4l-23-32.4c-58.8 64.3-90.8 62.1-148 26.2-2.21 41.1-14.3 80.7-12.1 117 1.25 20.3 15 30.7 29.9 41.3 27.7 19.8 53.1 35.8 82.6 47.7l-39.6 41 101 78.7c30.3-38 64.5-43.6 110-43.8v-56.3c-45-7.56-78.1-46.4-78.3-92.1 0.221-45.6 33.3-84.5 78.3-92.1zm31.5 0.0864v96.2c45 7.77 77.8 46.8 77.8 92.4-0.0215 45.6-32.9 84.6-77.8 92.4v56c52.3-0.29 80 9.4 110 43.7l101-78.6-39.6-41c28.4-11.7 55.7-26.6 80-45.5 18.7-14.1 34.3-27.7 32.6-52-2.24-36.9-7.76-74.8-12.2-109-65.1 40.8-94.3 30.2-148-25.8l-23.1 32.1c-25.2-30-65.6-48.6-100-61.2zm49.2 189c0 36-29.2 65.2-65.2 65.2-36 0-65.2-29.2-65.2-65.2 0-36 29.2-65.2 65.2-65.2 36 0 65.2 29.2 65.2 65.2z" />
	<path id="body" fill="url(#gradient-body)" d="m354 189c0 29.8-24.2 54-54 54-29.8 0-54-24.2-54-54 0-29.8 24.2-54 54-54 29.8 0 54 24.2 54 54zm-81.1-172v71.4c-47.6 16.4-73.5 47.6-77.6 93.6-3.28 51.7 22.6 87.9 77.6 108v35.7c-43.5 0-76.8 13.1-99.8 39.4l-82.5-64.1 34.5-35.7c24.6 6.57 48 9.85 70.2 9.85-66.5-15.6-119-40.6-159-71.4-15.6-11.9-24.6-22.6-24.6-35.7s3.28-44.3 9.85-93.6c46.8 29.6 92.8 20.5 138-27.1l14.8 20.9c5.03 7.13 13 7.29 19.7 0 20.5-22.3 46-40.2 78.8-51.7zm54.6 0c32.8 11.5 58.4 29.4 78.8 51.7 6.68 7.29 14.7 7.13 19.7 0l14.8-20.9c45.2 47.6 91.1 56.7 138 27.1 6.57 49.3 9.85 80.5 9.85 93.6s-9.07 23.8-24.6 35.7c-40.3 30.8-92.4 55.8-159 71.4 22.2 0 45.6-3.28 70.2-9.85l34.5 35.7-82.5 64.1c-23-26.3-56.2-39.4-99.8-39.4v-35.7c55-20.5 80.9-56.7 77.6-108-4.1-46-30-77.2-77.6-93.6z"/>
</svg>
