<?xml version="1.0" encoding="UTF-8"?>
<svg width="600" height="628" version="1.1" xmlns="http://www.w3.org/2000/svg">
	<path id="outline" fill="white" d="m201 0-64.1 94.6-137 64.8 34.8 244 265 224 265-224 34.8-244-137-64.8-64.1-94.6h-9.06z"/>
	<path id="body" fill="black" fill-rule="evenodd" d="m313 188c24.6-6.18 41.8-32.4 36.9-57.5-4.43-28.2-35.1-49.3-63-40.7-22.9 5.95-40.8 29.9-37 53.9 1.23 29.8 34.6 52.3 63 44.2zm49.6 258c-22.7-6.95-37.2-31.8-33.7-55 2.79-28.1 33.1-49.4 60.7-42.2 31.9 5.03 50.9 46.1 33.7 73.7-11.1 21.4-38.2 31.7-60.7 23.5zm67.5-151c-28.4-5.99-46.2-39.8-34.7-66.5 9.16-27.7 44.1-41.3 69.8-27.8 27.3 12.1 36.4 49.7 19.8 73.9-11.4 17.7-34.7 25.9-54.9 20.5zm-193 151c22.7-6.95 37.2-31.8 33.7-55-2.79-28.1-33.1-49.4-60.7-42.2-31.9 5.03-50.9 46.1-33.7 73.7 11.1 21.4 38.2 31.7 60.7 23.5zm-67.5-151c28.4-5.99 46.2-39.8 34.7-66.5-9.16-27.7-44.1-41.3-69.8-27.8-27.3 12.1-36.4 49.7-19.8 73.9 11.4 17.7 34.7 25.9 54.9 20.5zm337 85.3-201-98.7v265zm6.35-10.4 25.1-177-108-50.5-121 129zm-91.6-235-52.7-78.5h-138l-52.7 78.5 122 129zm-328 245 201-98.7v265zm-6.35-10.4-25.1-177 108-50.5 121 129zm303-353 61.6 91 130 61.4-32.1 225-249 210-249-210-32.1-225 130-61.4 61.6-91zm-12.4 22.3 61 87.8 119 55.4-28.6 201-228 190-228-190-28.6-201 119-55.4 61-87.8z"/>
	<path id="boss" fill="white" d="m416 398a36.8 36.8 0 0 1-36.8 36.8 36.8 36.8 0 0 1-36.8-36.8 36.8 36.8 0 0 1 36.8-36.8 36.8 36.8 0 0 1 36.8 36.8zm-158 0a36.8 36.8 0 0 1-36.8 36.8 36.8 36.8 0 0 1-36.8-36.8 36.8 36.8 0 0 1 36.8-36.8 36.8 36.8 0 0 1 36.8 36.8zm-63.6-152a36.8 36.8 0 0 1-36.8 36.8 36.8 36.8 0 0 1-36.8-36.8 36.8 36.8 0 0 1 36.8-36.8 36.8 36.8 0 0 1 36.8 36.8zm142-107a36.8 36.8 0 0 1-36.8 36.8 36.8 36.8 0 0 1-36.8-36.8 36.8 36.8 0 0 1 36.8-36.8 36.8 36.8 0 0 1 36.8 36.8zm142 107a36.8 36.8 0 0 1-36.8 36.8 36.8 36.8 0 0 1-36.8-36.8 36.8 36.8 0 0 1 36.8-36.8 36.8 36.8 0 0 1 36.8 36.8z"/>
</svg>
