<?xml version="1.0" encoding="UTF-8"?>
<svg width="600" height="563" version="1.1" xmlns="http://www.w3.org/2000/svg">
	<defs>
		<linearGradient id="gradient-body" x1="0" x2=".44" y1=".80" y2=".54" spreadMethod="reflect">
			<stop stop-color="#b2341a" offset="0"/>
			<stop stop-color="#f59700" offset=".9"/>
		</linearGradient>
	</defs>
	<path id="outline" fill="black" d="m408.4 213.1c0 14.8-2.744 33.51-8.154 40.73l-76.65-92.52-8.437 4.321 25.49 180.2c-19.12 25.85-31.02 53.1-31.22 88.25-0.3828 66.81 73.17 129 134 128.6 30.57-0.2132 53.92-18.56 54.15-47.9-0.0302-19.38-17.77-40.9-35.22-40.9-3.606 0-7.949 2.776-7.994 6.634-0.0718 6.204 4.833 11.66 4.833 16.9 0 2.693 0.4787 8.518-8.141 8.518-21.09 0-55.62-35.03-65.75-66.69 0 0-2.726-7.057-2.766-10.86-0.0752-7.07 4.101-7.192 11.34-3.67 46.11 22.42 118.1 49.95 206.1 65.7v-318.7l-8.585-1.583-77.78 198.4h-21.94l-17.55-23.86c28.05-39.24 43.76-80.33 42.99-127.9-1.999-122.8-99.15-216.7-217.1-216.7s-215.1 93.96-217.1 216.7c-0.7743 47.56 14.94 88.65 42.99 127.9l-17.55 23.86h-21.94l-77.78-198.4-8.585 1.583v318.7c87.99-15.75 160-43.28 206.1-65.7 7.244-3.522 11.42-3.4 11.34 3.67-0.0404 3.799-2.766 10.86-2.766 10.86-10.13 31.67-44.66 66.69-65.75 66.69-8.62 0-8.141-5.825-8.141-8.518 0-5.238 4.905-10.7 4.833-16.9-0.0447-3.859-4.388-6.634-7.994-6.634-17.45 0-35.19 21.52-35.22 40.9 0.232 29.34 23.58 47.69 54.15 47.9 60.87 0.4249 134.4-61.81 134-128.6-0.2014-35.15-12.1-62.4-31.22-88.25l25.49-180.2-8.437-4.321-76.65 92.52c-5.41-7.216-8.154-25.93-8.154-40.73 0-51.15 40.03-105.4 108.4-105.4s108.4 54.28 108.4 105.4z"/>
	<path id="body" fill="url(#gradient-body)" d="m174.8 214.5c0.1732 29.62 5.441 46.68 19.62 71.87l67.5-80.62-19.14 144.7c23.54 27.66 31.93 50.05 31.93 84 0 54.63-57.06 109.8-118.3 111.3-23.37 0.5411-37.2-8.92-37.63-31.45-0.1146-6.035 2.854-12.89 6.631-18.12-0.1176 7.998-3.049 24.28 23.16 24.1 40.06-0.2759 82.93-52.29 82.93-94.91 0-8.65-6.724-18.98-19.17-18.98-6.538 0-13.8 4.063-16.25 5.173-55.72 25.3-109 45.67-180.2 57.77v-237.4l60.27 153.8h40.22l29.34-42.02c-24.19-34.02-41.91-73.05-44.37-116.9-6.44-115 83.75-210.4 198.7-210.4 114.9 0 205.1 95.39 198.7 210.4-2.456 43.85-20.18 82.87-44.37 116.9l29.34 42.02h40.22l60.27-153.8v237.4c-71.16-12.1-124.5-32.47-180.2-57.77-2.445-1.11-9.709-5.173-16.25-5.173-12.45 0-19.17 10.33-19.17 18.98 0 42.62 42.88 94.63 82.93 94.91 26.21 0.1807 23.28-16.11 23.16-24.1 3.778 5.227 6.746 12.09 6.631 18.12-0.4277 22.54-14.25 32-37.63 31.45-61.26-1.418-118.3-56.63-118.3-111.3 0-33.95 8.386-56.33 31.93-84l-19.14-144.7 67.5 80.62c14.18-25.19 19.45-42.25 19.62-71.87 0.3914-66.95-56.89-124.5-125.2-124.5-68.33 0-125.6 57.55-125.2 124.5z"/>
</svg>
