<?xml version="1.0" encoding="UTF-8"?>
<svg width="600" height="600" version="1.1" xmlns="http://www.w3.org/2000/svg">
	<defs>
		<linearGradient id="gradient-body" x1=".2" x2=".5" y1=".8" y2=".5" spreadMethod="reflect">
			<stop stop-color="#596771" offset="0"/>
			<stop stop-color="#c3e2ee" offset=".9"/>
		</linearGradient>
	</defs>
	<path id="outline" fill="url(#gradient-body)" d="m24.4 0 133 134-23.1 23.1-134-133 85.4 214c-11.2 29.3-17.1 60.5-17.3 91.9l-0.0021 0.0496v0.0516c7.13e-4 144 117 261 261 261h0.153c19.4-0.144 38.6-2.57 57.5-6.98 5.06 2.35 9.71 4.54 15.3 6.96 17.1 7.4 37.3 8.72 58.3 8.02s41.5-3.58 58.3-11.7c15.4-7.44 29-17.3 40.5-28.8 11.5-11.5 21.4-25.1 28.8-40.5 8.15-16.8 11-37.3 11.7-58.3 0.706-21-0.619-41.2-8.02-58.3-2.42-5.6-4.6-10.2-6.96-15.3 4.41-18.8 6.83-38.1 6.98-57.5l2e-3 -0.0764v-0.0743c-6.2e-4 -144-117-261-261-261h-0.101c-31.5 0.155-62.6 6.06-91.9 17.3z"/>
	<path id="body" fill="black" fill-rule="evenodd" d="m365 505c-7.11-14-12.9-31.9-12.9-39.7v-14.2l-18.8 18.4c-14.9 14.6-18.8 21.8-18.8 34.9v16.6l-39.7-39.7 41.5-42.2-11.1-11.8c-8.07-8.59-16-11.8-28.9-11.8-11.3 0-24.2-4.37-35.5-12-12.5-8.51-22.5-11.6-34.3-10.6l-16.6 1.44-82.8-207 243 242h16.6c13.2 1e-5 20.4 3.86 35 18.8l18.4 18.8-15.4 1e-5 -15.4-1e-5 3.34 10.6c9.89 31.3 32.4 47.7 65.6 47.8 17.4 0.0376 27.8-2.88 39.3-11 6.72-5.1 12.8-11 17.4-17.4 8.17-11.5 11.1-21.8 11-39.3-0.0743-33.2-16.5-55.7-47.8-65.6l-10.6-3.34 2e-5 15.4-2e-5 15.4-18.8-18.4c-14.9-14.6-18.8-21.8-18.8-35v-16.6l-242-243 207 82.8-1.44 16.6c-1.02 11.7 2.07 21.7 10.6 34.3 7.65 11.3 12 24.2 12 35.5-1e-5 12.9 3.23 20.8 11.8 28.9l11.8 11.1 42.2-41.5 39.7 39.7h-16.6c-13.2 1e-5 -20.4 3.88-34.9 18.8l-18.4 18.8h14.2c7.81 0 25.7 5.81 39.7 12.9 68 34.4 75.6 118 26.6 167-48.9 48.9-132 41.4-167-26.6zm-179-371-78.2-78.9 131 52.2c29.2-12.3 60.5-18.6 92.1-18.8 133 6.58e-4 241 108 241 241-0.151 20.2-2.84 40.3-8 59.8 4.63 9.78 6.24 13.3 9.65 21.2 9.93 23 8.15 75.9-3.35 99.6-6.42 13.3-15 25.1-24.9 35-9.89 9.89-21.7 18.5-35 24.9-23.8 11.5-76.7 13.3-99.6 3.35-7.89-3.41-11.4-5.02-21.2-9.65-19.5 5.16-39.6 7.85-59.8 8-133-6.5e-4 -241-108-241-241 0.156-31.6 6.54-62.9 18.8-92.1l-52.2-131 78.9 78.2z"/>
</svg>
