<?xml version="1.0" encoding="UTF-8"?>
<svg width="600" height="679" version="1.1" xmlns="http://www.w3.org/2000/svg">
	<defs>
		<linearGradient id="gradient-body" x2=".5" y2=".5" spreadMethod="reflect">
			<stop stop-color="#596771" offset="0"/>
			<stop stop-color="#c3e2ee" offset=".9"/>
		</linearGradient>
	</defs>
	<path id="outline" fill="black" d="m300 0-62.1 45v43.8l-238 76.8 9.4 91.2 20.4-6.13 30.3 292-22.6-4.92 8.65 85 254 56.6 254-56.6 8.65-85-22.6 4.92 30.3-292 20.4 6.13 9.4-91.2-238-76.8v-43.8z"/>
	<path id="body" fill="url(#gradient-body)" fill-rule="evenodd" d="m151 329-3.59-80.5-60.5 16.3 6.9 73.3zm105-14.2-0.545-96.4-77.9 21.4 3.84 84.6zm148 100 2.2-66.3-54.3-4.79v72.9zm115-154-71.7-19.1-5.4 92.6 67.3 10.3zm-91.7-25.4-89.4-24.3-0.309 109 85.2 10.9zm-364 331 3.77 37.1 233 51.9 233-51.9 3.77-37.1-236 51.4zm228-402-241 72.7 33 317 208 45.3zm-263 61.9-4.65-45.1 275-88.9 275 88.9-4.65 45.1-271-81.3zm231-170v32.3l39.2-12.6 39.2 12.6v-32.3l-39.2-28.4zm47.2 108 241 72.7-33 317-208 45.3z"/>
</svg>
