<?xml version="1.0" encoding="UTF-8"?>
<svg width="600" height="629.5" version="1.1" xmlns="http://www.w3.org/2000/svg" xmlns:xlink="http://www.w3.org/1999/xlink">
	<defs>
		<linearGradient id="gradient-body" x1="-.03" x2=".5" spreadMethod="reflect">
			<stop stop-color="#596771" offset="0"/>
			<stop stop-color="#c3e2ee" offset=".9"/>
		</linearGradient>
		<linearGradient id="gradient-top" x1="-.5" xlink:href="#gradient-body"/>
		<linearGradient id="gradient-wings" x1="0" xlink:href="#gradient-body"/>
	</defs>
	<g>
		<path id="outline" fill="black" d="m35.19 451.5c19.82-133-1.547-269.4-35.19-404.7 23.67-7.682 79.49-28.03 99.08-46.82 44.38 29.75 72.08 46.26 121.9 59.6 39.33 10.54 74.57 45.87 79.07 69.39 4.497-23.52 39.73-58.85 79.07-69.39 49.78-13.34 77.48-29.85 121.9-59.6 19.59 18.78 75.4 39.13 99.08 46.82-33.64 135.3-55.01 271.7-35.19 404.7-11.73 12.32-202.7 155.9-264.8 178-62.13-22.1-253.1-165.7-264.8-178z"/>
		<path id="body" fill="url(#gradient-body)" fill-rule="evenodd" d="m129.6 492.6c11.83-161.4-1.175-274.4-18.85-378.2l107.9 36.43c16.14 28.34 45.48 46.61 81.39 46.61s65.25-18.27 81.39-46.61l107.9-36.43c-17.68 103.9-30.68 216.8-18.85 378.2-56.24 37.09-104.9 76.86-170.4 110.6-65.49-33.78-114.2-73.56-170.4-110.6zm43.92-102.7c45.24-37.35 87.96-81.5 126.5-169.7 38.55 88.18 81.26 132.3 126.5 169.7-45.24 37.35-87.96 81.5-126.5 169.7-38.55-88.18-81.26-132.3-126.5-169.7z"/>
		<path id="top" fill="url(#gradient-top)" d="m233.6 129.8-202.4-73.34c21.38-8.858 50.95-23.88 65.17-35.21 50.63 30.02 81.01 45.99 124.6 59.34 41.71 12.18 71.79 50.72 79.07 88.78 7.276-38.06 37.36-76.6 79.07-88.78 43.57-13.35 73.95-29.32 124.6-59.34 14.22 11.32 43.79 26.35 65.17 35.21l-202.4 73.34c-11.62 28.68-37.34 45.37-66.39 45.37s-54.77-16.68-66.39-45.37z"/>
		<path id="wings" fill="url(#gradient-wings)" d="m36.53 89.2c28.45 120.5 39.95 238.4 26.23 352.6l46.61 35.94c8.87-113.1 11.24-230.4-22.65-371.6zm526.9 0c-28.45 120.5-39.95 238.4-26.23 352.6l-46.61 35.94c-8.87-113.1-11.24-230.4 22.65-371.6z"/>
		<path id="boss" fill="white" d="m210.8 389.9c41.15-38.86 66.48-80.25 89.21-122.1 22.73 41.81 48.05 83.2 89.21 122.1-41.15 38.86-66.48 80.25-89.21 122.1-22.73-41.81-48.05-83.2-89.21-122.1z"/>
	</g>
</svg>
