<?xml version="1.0" encoding="UTF-8"?>
<svg width="600" height="350.5" version="1.1" xmlns="http://www.w3.org/2000/svg" xmlns:xlink="http://www.w3.org/1999/xlink">
	<defs>
		<linearGradient id="gradient-body" x1=".5" x2="0" spreadMethod="reflect">
			<stop stop-color="#b2341a" offset=".1"/>
			<stop stop-color="#f5a200" offset=".9"/>
		</linearGradient>
		<linearGradient id="gradient-boss" x1="0" x2="0" y1="-.1" y2=".5" spreadMethod="reflect" xlink:href="#gradient-body"/>
	</defs>
	<path id="outline" fill="black" d="m123.5 0-37.58 230c75.78 13 140.5 53.16 198.4 120.5l-5.8e-4 -82.07c-20.04-43.99-47.21-81.5-81.5-112.5 23.95-20.98 45.72-48.07 65.29-81.26-43.52-36.95-90.28-61.84-144.6-74.68zm-80.15 44.15-43.3 254.1c65.6-10.18 138.9-0.7825 219.8 28.18-46.5-47.13-99.96-70.14-159.1-77.03l30.77-186.9zm433.2-44.15 37.58 230c-75.78 13-140.5 53.16-198.4 120.5l5.8e-4 -82.07c20.04-43.99 47.21-81.5 81.5-112.5-23.95-20.98-45.72-48.07-65.29-81.26 43.52-36.95 90.28-61.84 144.6-74.68zm80.15 44.15 43.3 254.1c-65.6-10.18-138.9-0.7825-219.8 28.18 46.5-47.13 99.96-70.14 159.1-77.03l-30.77-186.9zm-184.8 111.6c-30.37-25.05-54.33-59.18-71.87-102.4-17.54 43.21-41.49 77.34-71.87 102.4 31.16 27.09 55.11 61.22 71.87 102.4 16.75-41.18 40.71-75.31 71.87-102.4z"/>
	<path id="background" fill="#b2341a" d="m55.48 65.46 18.52 7.05-31.35 190.5 16.23 1.891c29.05 3.382 56.24 10.78 81.85 23.19-42.73-8.627-83.37-11.25-121.9-7.691zm489 0-18.52 7.05 31.35 190.5-16.23 1.891c-29.05 3.382-56.24 10.78-81.85 23.19 42.73-8.627 83.37-11.25 121.9-7.691z"/>
	<path id="body" fill="url(#gradient-body)" d="m136.1 19.51c40.83 11.89 77.02 31.29 111.4 58.56-20.77 31.79-41.56 54.42-68.12 77.68 37.92 33.88 71.05 77.82 89.35 116.4v39.09c-48.99-48.21-103.6-79.59-165.1-93.25zm327.9 0c-40.83 11.89-77.02 31.29-111.4 58.56 20.77 31.79 41.56 54.42 68.12 77.68-37.92 33.88-71.05 77.82-89.35 116.4v39.09c48.99-48.21 103.6-79.59 165.1-93.25z"/>
	<path id="boss" fill="url(#gradient-boss)" d="m349.1 156.3c-19.19-18.44-35.53-40.61-49.12-66.21h-4e-3c-13.59 25.6-29.94 47.78-49.12 66.21 19.25 19.1 35.83 40.76 49.13 65.46 13.3-24.7 29.87-46.36 49.13-65.46z"/>
</svg>