<svg id="svg" version="1.1" xmlns="http://www.w3.org/2000/svg" xmlns:xlink="http://www.w3.org/1999/xlink" width="400" height="400" viewBox="0, 0, 400,400"><g id="svgg"><path id="path0" d="M194.796 17.496 C 193.966 18.551,193.943 18.835,194.201 24.996 C 194.348 28.518,194.498 38.870,194.534 48.000 L 194.600 64.600 189.000 65.114 C 185.920 65.397,182.230 65.719,180.800 65.830 C 179.370 65.941,177.840 66.188,177.400 66.380 C 176.960 66.572,175.340 66.920,173.800 67.153 C 172.260 67.386,169.830 67.923,168.400 68.345 C 166.970 68.768,164.090 69.593,162.000 70.180 C 155.887 71.894,151.823 73.538,143.200 77.783 C 135.806 81.423,134.456 82.202,127.643 86.758 C 126.456 87.551,125.122 88.411,124.678 88.669 C 124.234 88.927,123.013 89.882,121.965 90.791 C 120.917 91.700,119.371 92.947,118.529 93.561 C 116.128 95.315,107.889 103.342,104.155 107.564 C 102.290 109.674,100.412 111.766,99.982 112.214 C 99.552 112.662,99.200 113.247,99.200 113.514 C 99.200 113.781,99.045 114.000,98.855 114.000 C 98.392 114.000,92.800 121.980,92.800 122.640 C 92.800 122.926,92.569 123.304,92.287 123.480 C 92.005 123.656,91.033 125.060,90.127 126.600 C 87.785 130.580,85.200 135.236,85.200 135.475 C 85.200 135.587,84.495 137.146,83.634 138.939 C 81.800 142.761,79.266 148.887,78.811 150.600 C 78.636 151.260,77.999 153.420,77.396 155.400 C 75.753 160.798,74.369 166.659,73.996 169.800 C 73.813 171.340,73.435 173.680,73.155 175.000 C 72.418 178.478,72.421 205.238,73.160 208.800 C 73.456 210.230,73.835 212.570,74.003 214.000 C 74.314 216.654,75.695 223.200,76.405 225.387 C 76.622 226.054,77.259 228.220,77.821 230.200 C 78.383 232.180,79.127 234.520,79.476 235.400 C 80.820 238.797,81.252 239.824,81.619 240.495 C 81.829 240.877,82.000 241.361,82.000 241.572 C 82.000 242.081,86.420 251.163,88.145 254.200 C 88.895 255.520,89.890 257.320,90.357 258.200 C 90.823 259.080,92.372 261.420,93.798 263.400 C 95.225 265.380,96.394 267.215,96.396 267.477 C 96.398 267.740,96.729 268.190,97.131 268.477 C 97.533 268.765,98.028 269.297,98.231 269.660 C 100.851 274.345,119.082 292.118,125.063 295.819 C 125.757 296.248,127.696 297.545,129.370 298.700 C 131.045 299.855,132.533 300.800,132.676 300.800 C 132.820 300.800,133.221 301.044,133.569 301.342 C 133.916 301.640,135.190 302.403,136.400 303.039 C 137.610 303.674,138.690 304.291,138.800 304.410 C 138.910 304.528,140.260 305.223,141.800 305.954 C 143.340 306.685,145.950 307.964,147.600 308.797 C 149.250 309.631,151.197 310.439,151.927 310.594 C 152.657 310.749,153.737 311.127,154.327 311.435 C 154.917 311.743,155.602 311.996,155.849 311.998 C 156.096 311.999,157.086 312.348,158.049 312.774 C 162.830 314.886,172.604 317.214,182.200 318.525 L 188.600 319.400 188.824 335.000 C 188.967 345.034,189.219 351.314,189.529 352.600 C 189.794 353.700,190.358 356.400,190.782 358.600 C 192.140 365.654,193.052 369.396,195.126 376.427 C 195.916 379.101,196.034 379.390,197.489 382.200 C 198.546 384.242,201.244 384.588,202.166 382.800 C 204.148 378.957,205.539 374.539,207.833 364.800 C 210.290 354.373,210.500 352.256,210.757 335.400 L 211.000 319.400 212.400 319.280 C 217.238 318.867,230.889 316.393,232.600 315.619 C 233.040 315.420,234.390 315.037,235.600 314.769 C 240.097 313.769,250.138 309.967,255.064 307.398 C 255.689 307.072,256.427 306.804,256.704 306.802 C 256.981 306.801,258.105 306.170,259.200 305.400 C 260.295 304.630,261.370 304.000,261.589 304.000 C 262.337 304.000,273.721 296.775,274.204 295.994 C 274.330 295.789,275.031 295.338,275.760 294.992 C 280.935 292.537,298.995 274.035,305.082 264.955 C 307.362 261.553,312.800 252.794,312.800 252.523 C 312.800 252.447,313.704 250.566,314.808 248.344 C 318.610 240.696,321.058 234.203,322.855 227.000 C 323.075 226.120,323.431 225.074,323.646 224.675 C 324.130 223.780,325.360 217.572,326.476 210.400 C 327.196 205.773,327.317 203.196,327.323 192.400 C 327.329 180.558,327.204 178.514,326.000 170.800 C 325.467 167.385,324.019 160.689,323.622 159.800 C 323.425 159.360,322.870 157.470,322.387 155.600 C 321.472 152.051,320.418 148.966,319.149 146.122 C 318.737 145.199,318.394 144.299,318.386 144.122 C 318.379 143.945,318.025 143.080,317.600 142.200 C 317.175 141.320,316.821 140.468,316.814 140.307 C 316.788 139.762,311.700 129.664,310.847 128.466 C 310.381 127.812,310.000 127.138,310.000 126.970 C 310.000 126.801,309.701 126.333,309.336 125.929 C 308.663 125.185,308.405 124.784,307.042 122.352 C 306.625 121.609,305.538 120.010,304.626 118.800 C 303.714 117.590,302.641 116.082,302.241 115.448 C 301.841 114.814,301.106 113.824,300.608 113.248 C 300.110 112.672,298.092 110.310,296.124 108.000 C 289.202 99.878,276.752 89.203,268.368 84.200 C 267.630 83.760,266.571 83.115,266.013 82.767 C 263.740 81.346,260.452 79.535,258.000 78.353 C 256.570 77.663,255.130 76.941,254.800 76.747 C 254.470 76.553,253.930 76.287,253.600 76.155 C 251.485 75.307,250.110 74.712,249.505 74.381 C 249.123 74.171,248.634 74.000,248.417 74.000 C 248.201 74.000,247.073 73.579,245.912 73.064 C 241.147 70.952,234.093 68.853,227.400 67.554 C 225.200 67.127,222.847 66.603,222.172 66.389 C 221.496 66.175,220.038 66.000,218.931 66.000 C 217.825 66.000,216.384 65.813,215.730 65.586 C 215.076 65.358,212.485 65.043,209.971 64.886 L 205.400 64.600 205.200 41.000 C 205.090 28.020,204.854 17.175,204.676 16.900 C 203.937 15.757,195.776 16.250,194.796 17.496 M194.600 85.800 L 194.600 96.600 190.400 96.897 C 188.090 97.060,185.887 97.375,185.505 97.597 C 185.123 97.819,183.726 98.000,182.400 98.000 C 181.074 98.000,179.677 98.166,179.295 98.369 C 178.913 98.572,177.070 99.043,175.200 99.416 C 173.330 99.789,171.620 100.223,171.400 100.381 C 171.180 100.539,169.770 100.992,168.267 101.387 C 163.397 102.669,162.468 104.118,164.098 107.886 C 165.300 110.666,166.540 111.235,169.148 110.206 C 170.167 109.804,172.440 109.124,174.200 108.696 C 175.960 108.268,177.760 107.764,178.200 107.576 C 179.238 107.133,185.539 106.000,186.963 106.000 L 188.063 106.000 187.889 122.100 C 187.723 137.448,187.531 140.147,186.425 142.600 C 186.227 143.040,185.965 143.985,185.842 144.700 C 185.720 145.415,185.245 146.855,184.786 147.900 C 183.461 150.916,182.709 152.554,182.349 153.200 C 182.166 153.530,181.580 154.700,181.048 155.800 C 178.464 161.140,169.760 170.716,166.402 171.915 C 166.071 172.034,165.348 172.442,164.797 172.824 C 163.490 173.727,155.023 178.000,154.540 178.000 C 154.336 178.000,153.463 178.360,152.600 178.800 C 151.737 179.240,150.749 179.600,150.404 179.600 C 150.060 179.600,149.423 179.846,148.989 180.146 C 148.555 180.446,146.490 181.171,144.400 181.756 C 142.310 182.341,139.430 183.169,138.000 183.596 C 136.570 184.023,134.355 184.554,133.077 184.777 C 131.799 184.999,130.566 185.297,130.337 185.439 C 130.108 185.581,128.903 185.846,127.660 186.028 C 126.417 186.210,124.320 186.561,123.000 186.808 C 115.481 188.214,105.370 189.441,96.800 189.988 C 88.937 190.490,88.800 190.524,88.800 191.947 C 88.800 193.646,89.473 193.998,92.780 194.025 C 96.044 194.051,107.111 195.169,114.200 196.188 C 116.620 196.536,119.459 196.929,120.508 197.062 C 121.558 197.195,122.514 197.460,122.632 197.652 C 122.750 197.843,123.285 198.000,123.821 198.000 C 125.215 198.000,135.282 199.944,136.013 200.354 C 136.350 200.543,137.250 200.826,138.013 200.981 C 141.471 201.686,148.448 203.944,152.600 205.702 C 154.140 206.354,156.030 207.153,156.800 207.477 C 159.933 208.797,160.993 209.361,165.106 211.900 C 166.264 212.615,167.346 213.200,167.510 213.200 C 167.674 213.200,168.032 213.560,168.307 214.000 C 168.582 214.440,169.010 214.800,169.259 214.800 C 170.079 214.800,174.585 219.062,176.399 221.554 C 177.379 222.899,178.320 224.000,178.490 224.000 C 178.661 224.000,178.801 224.225,178.802 224.500 C 178.803 224.775,179.342 225.810,180.001 226.800 C 184.119 232.991,188.000 244.032,188.000 249.555 C 188.000 250.372,188.181 251.221,188.403 251.443 C 188.667 251.707,188.770 261.640,188.703 280.423 L 188.600 309.000 185.800 308.897 C 184.260 308.840,182.640 308.627,182.200 308.424 C 181.760 308.221,179.510 307.757,177.200 307.393 C 174.890 307.029,172.829 306.567,172.620 306.366 C 172.411 306.165,171.905 306.000,171.495 306.000 C 171.085 306.000,169.816 305.718,168.675 305.373 C 162.658 303.557,159.759 302.620,159.400 302.376 C 159.180 302.227,158.280 301.874,157.400 301.593 C 156.520 301.312,155.173 300.749,154.406 300.341 C 153.639 299.934,152.868 299.600,152.693 299.600 C 152.517 299.600,150.746 298.790,148.757 297.800 C 146.768 296.810,144.884 296.000,144.570 296.000 C 144.257 296.000,144.000 295.849,144.000 295.664 C 144.000 295.480,143.595 295.124,143.100 294.874 C 142.605 294.624,141.300 293.867,140.200 293.192 C 139.100 292.517,137.885 291.862,137.500 291.736 C 137.115 291.610,136.800 291.377,136.800 291.218 C 136.800 291.059,136.395 290.742,135.900 290.514 C 135.405 290.285,133.380 288.909,131.400 287.454 C 129.420 286.000,127.356 284.493,126.813 284.105 C 123.309 281.603,112.042 270.544,109.182 266.800 C 108.426 265.810,107.668 264.820,107.498 264.600 C 104.459 260.671,98.800 252.440,98.800 251.948 C 98.800 251.648,97.197 249.066,96.455 248.169 C 96.258 247.932,95.965 247.302,95.803 246.769 C 95.641 246.236,94.919 244.630,94.198 243.200 C 90.620 236.098,88.560 230.621,86.600 223.000 C 86.205 221.460,85.663 219.660,85.397 219.000 C 85.131 218.340,84.692 216.180,84.422 214.200 C 84.152 212.220,83.749 210.150,83.526 209.600 C 82.019 205.871,81.808 184.008,83.206 176.454 C 83.395 175.434,83.917 172.530,84.366 170.000 C 84.815 167.470,85.344 165.124,85.540 164.787 C 85.737 164.450,86.027 163.550,86.184 162.787 C 86.560 160.961,87.909 156.412,88.374 155.400 C 88.577 154.960,89.144 153.340,89.636 151.800 C 90.127 150.260,90.860 148.410,91.265 147.688 C 91.669 146.966,92.000 146.140,92.000 145.853 C 92.000 145.107,95.458 138.192,97.075 135.704 C 97.825 134.551,98.702 133.021,99.026 132.304 C 99.565 131.110,100.869 129.029,103.648 124.927 C 104.225 124.076,105.936 121.854,107.451 119.990 C 108.966 118.125,110.495 116.150,110.849 115.600 C 111.844 114.053,122.806 103.200,123.373 103.200 C 123.650 103.200,124.219 102.818,124.638 102.352 C 125.588 101.295,134.689 94.414,135.560 94.094 C 135.912 93.965,136.757 93.441,137.438 92.929 C 138.119 92.418,138.856 92.000,139.076 92.000 C 139.296 92.000,139.802 91.640,140.200 91.200 C 140.598 90.760,141.151 90.400,141.429 90.400 C 141.706 90.400,141.993 90.265,142.067 90.100 C 142.225 89.743,152.821 84.399,153.400 84.383 C 153.620 84.378,154.520 84.025,155.400 83.600 C 156.280 83.175,157.279 82.821,157.620 82.814 C 157.961 82.806,158.411 82.642,158.620 82.449 C 158.829 82.256,159.990 81.793,161.200 81.421 C 162.410 81.048,163.760 80.581,164.200 80.384 C 165.433 79.830,172.264 78.000,173.098 78.000 C 173.506 78.000,174.011 77.843,174.220 77.650 C 174.429 77.458,176.490 77.016,178.800 76.669 C 181.110 76.321,183.630 75.929,184.400 75.796 C 188.878 75.026,190.027 74.901,192.200 74.948 L 194.600 75.000 194.600 85.800 M212.600 75.213 C 213.700 75.408,216.850 75.923,219.600 76.358 C 222.350 76.793,225.230 77.339,226.000 77.572 C 226.770 77.805,229.110 78.452,231.200 79.010 C 233.290 79.568,235.360 80.185,235.800 80.380 C 236.240 80.576,237.994 81.200,239.698 81.766 C 241.401 82.333,243.469 83.157,244.292 83.598 C 245.115 84.039,245.953 84.400,246.154 84.400 C 246.356 84.400,248.158 85.185,250.160 86.144 C 252.162 87.103,254.070 88.004,254.400 88.146 C 254.730 88.289,255.720 88.858,256.600 89.412 C 257.480 89.965,258.650 90.630,259.200 90.889 C 259.750 91.148,261.577 92.314,263.261 93.480 C 264.944 94.646,266.431 95.600,266.565 95.600 C 266.804 95.600,273.328 100.494,274.237 101.356 C 274.495 101.600,275.492 102.418,276.453 103.173 C 278.233 104.572,287.704 113.946,288.806 115.400 C 289.140 115.840,290.850 118.002,292.606 120.204 C 296.697 125.333,298.000 127.078,298.000 127.428 C 298.000 127.583,298.765 128.906,299.700 130.368 C 300.635 131.831,301.622 133.381,301.894 133.814 C 302.547 134.854,306.875 143.663,307.979 146.200 C 308.458 147.300,309.096 148.740,309.396 149.400 C 309.697 150.060,310.156 151.320,310.416 152.200 C 310.676 153.080,311.123 154.340,311.409 155.000 C 311.695 155.660,312.039 156.650,312.174 157.200 C 312.309 157.750,312.703 159.190,313.049 160.400 C 314.296 164.764,315.997 172.847,315.999 174.420 C 315.999 174.981,316.166 175.611,316.369 175.820 C 317.812 177.305,317.862 203.879,316.430 208.556 C 316.221 209.240,315.691 211.780,315.251 214.200 C 314.364 219.091,313.977 220.772,312.994 224.000 C 312.625 225.210,312.226 226.740,312.107 227.400 C 311.987 228.060,311.779 228.690,311.643 228.800 C 311.507 228.910,311.049 230.080,310.625 231.400 C 310.201 232.720,309.740 233.980,309.602 234.200 C 309.463 234.420,308.840 235.950,308.218 237.600 C 307.596 239.250,306.842 240.884,306.543 241.231 C 306.244 241.579,306.000 242.055,306.000 242.289 C 306.000 242.955,302.040 250.422,300.755 252.179 C 300.120 253.047,299.600 253.922,299.600 254.123 C 299.600 254.325,298.115 256.553,296.300 259.076 C 294.485 261.599,292.699 264.125,292.331 264.689 C 291.963 265.253,291.502 265.824,291.308 265.957 C 291.113 266.091,290.694 266.580,290.377 267.044 C 288.515 269.767,280.397 277.835,274.322 283.000 C 272.580 284.481,265.648 289.514,263.853 290.600 C 263.126 291.040,261.805 291.883,260.917 292.472 C 253.791 297.208,236.007 304.686,229.000 305.894 C 228.340 306.007,227.620 306.232,227.400 306.392 C 227.180 306.553,225.020 306.998,222.600 307.381 C 220.180 307.765,217.840 308.227,217.400 308.408 C 216.352 308.840,212.092 309.210,211.366 308.932 C 210.889 308.749,210.808 306.089,210.851 292.057 C 210.967 253.844,211.452 244.592,213.613 239.400 C 213.888 238.740,214.337 237.660,214.612 237.000 C 214.886 236.340,215.244 235.350,215.407 234.800 C 215.570 234.250,216.253 232.810,216.924 231.600 C 217.594 230.390,218.337 229.040,218.574 228.600 C 221.338 223.468,229.767 214.000,231.571 214.000 C 231.770 214.000,231.993 213.859,232.067 213.687 C 232.306 213.126,237.320 210.155,240.800 208.512 C 247.306 205.442,251.254 203.875,254.668 203.011 C 255.805 202.723,256.916 202.375,257.138 202.238 C 257.581 201.965,262.874 200.528,265.400 199.995 C 266.280 199.810,268.980 199.266,271.400 198.786 C 273.820 198.306,276.160 197.761,276.600 197.573 C 278.517 196.757,292.588 195.073,303.400 194.365 C 311.177 193.857,311.583 193.744,311.594 192.091 C 311.603 190.718,310.622 190.505,301.000 189.792 C 296.160 189.433,291.120 188.982,289.800 188.788 C 288.480 188.595,284.700 188.070,281.400 187.621 C 278.100 187.173,275.087 186.624,274.705 186.403 C 274.323 186.181,273.457 186.000,272.781 186.000 C 272.104 186.000,270.706 185.750,269.675 185.445 C 268.644 185.140,266.810 184.673,265.600 184.408 C 264.390 184.143,262.860 183.767,262.200 183.574 C 261.540 183.380,258.930 182.659,256.400 181.970 C 253.870 181.281,251.620 180.583,251.400 180.420 C 251.180 180.256,250.010 179.807,248.800 179.421 C 246.100 178.561,240.428 176.046,239.569 175.328 C 239.221 175.037,238.703 174.800,238.416 174.800 C 238.130 174.800,237.019 174.170,235.947 173.400 C 234.875 172.630,233.886 172.000,233.748 172.000 C 232.046 172.000,220.800 160.911,220.800 159.233 C 220.800 158.995,220.663 158.800,220.495 158.800 C 220.327 158.800,220.012 158.453,219.795 158.028 C 219.578 157.604,218.574 155.668,217.564 153.728 C 216.554 151.787,215.497 149.479,215.216 148.599 C 214.934 147.720,214.545 146.829,214.352 146.620 C 214.158 146.411,214.000 145.862,214.000 145.400 C 214.000 144.938,213.853 144.389,213.673 144.180 C 213.263 143.704,212.524 140.653,211.932 137.000 C 211.409 133.772,211.025 107.024,211.490 106.249 C 211.825 105.690,220.151 106.778,221.800 107.596 C 222.240 107.815,223.858 108.279,225.397 108.628 C 226.935 108.977,228.375 109.405,228.597 109.579 C 231.039 111.495,234.407 110.803,235.584 108.144 C 237.172 104.554,236.567 102.964,233.200 101.877 C 225.349 99.343,219.845 98.000,217.315 98.000 C 216.020 98.000,214.775 97.815,214.549 97.589 C 214.323 97.363,212.047 97.066,209.491 96.929 L 204.843 96.680 205.054 86.240 C 205.171 80.498,205.336 75.575,205.420 75.300 C 205.602 74.713,209.512 74.666,212.600 75.213 M273.600 115.560 C 272.610 116.438,271.440 117.495,271.000 117.909 C 265.624 122.976,249.632 135.174,242.823 139.400 C 241.051 140.500,238.656 142.005,237.501 142.743 C 236.345 143.482,234.567 144.509,233.550 145.025 C 229.737 146.958,230.478 149.755,236.350 155.598 C 243.816 163.026,245.332 162.890,249.674 154.400 C 250.708 152.380,257.816 141.707,260.173 138.638 C 261.508 136.899,263.569 134.199,264.752 132.638 C 268.156 128.150,271.547 124.112,274.924 120.525 C 277.815 117.456,278.039 117.095,277.924 115.704 C 277.738 113.447,276.048 113.391,273.600 115.560 M122.480 115.280 C 121.580 116.180,121.999 117.258,124.132 119.530 C 128.202 123.866,133.754 130.639,138.943 137.600 C 143.919 144.275,144.916 145.741,148.875 152.200 C 149.819 153.740,150.774 155.290,150.996 155.644 C 151.218 155.999,151.895 157.207,152.499 158.330 C 154.261 161.600,155.333 161.872,158.492 159.851 C 164.635 155.921,170.027 148.767,168.494 146.581 C 168.332 146.350,166.670 145.277,164.800 144.197 C 159.893 141.361,150.211 135.026,147.309 132.752 C 145.938 131.678,144.648 130.800,144.442 130.800 C 144.236 130.800,144.007 130.665,143.933 130.500 C 143.860 130.335,142.450 129.132,140.800 127.828 C 136.369 124.324,129.844 118.866,127.496 116.700 C 125.365 114.734,123.542 114.218,122.480 115.280 M201.100 149.554 C 201.595 150.611,202.000 151.714,202.000 152.004 C 202.000 152.976,207.153 162.767,209.289 165.855 C 210.450 167.533,211.827 169.543,212.350 170.322 C 213.566 172.136,220.725 179.305,222.054 180.040 C 222.610 180.348,224.686 181.692,226.666 183.027 C 230.801 185.815,240.539 190.724,243.300 191.413 C 243.905 191.563,244.400 191.843,244.400 192.033 C 244.400 192.383,241.166 194.000,240.466 194.000 C 238.554 194.000,220.800 204.550,220.800 205.686 C 220.800 205.859,220.571 206.000,220.291 206.000 C 218.829 206.000,209.574 217.250,206.634 222.600 C 206.271 223.260,205.573 224.520,205.082 225.400 C 204.591 226.280,203.673 228.260,203.041 229.800 C 201.536 233.470,200.012 236.800,199.837 236.800 C 199.760 236.800,199.277 235.675,198.763 234.300 C 197.682 231.410,193.321 222.729,191.480 219.800 C 190.351 218.006,189.121 216.299,186.304 212.619 C 184.654 210.462,181.085 206.800,180.634 206.800 C 180.390 206.800,179.852 206.350,179.439 205.800 C 179.026 205.250,178.500 204.800,178.270 204.800 C 178.040 204.800,177.480 204.456,177.026 204.037 C 176.572 203.617,174.940 202.449,173.400 201.441 C 171.860 200.434,170.420 199.472,170.200 199.305 C 169.175 198.524,159.389 193.927,157.422 193.302 C 154.838 192.481,154.796 192.030,157.226 191.179 C 163.113 189.117,175.285 182.559,175.933 181.100 C 176.007 180.935,176.324 180.800,176.638 180.800 C 177.259 180.800,186.538 171.705,187.784 169.875 C 188.205 169.256,188.831 168.416,189.175 168.008 C 190.055 166.964,192.752 162.602,194.099 160.043 C 194.723 158.857,195.496 157.512,195.817 157.054 C 196.138 156.597,196.400 155.997,196.400 155.721 C 196.400 155.445,196.940 154.041,197.600 152.600 C 198.260 151.159,198.800 149.906,198.800 149.816 C 198.800 147.459,200.052 147.316,201.100 149.554 M154.145 223.506 C 153.754 223.759,152.924 225.120,151.039 228.600 C 149.268 231.868,138.177 248.065,135.400 251.437 C 127.967 260.463,126.320 262.422,124.846 263.987 C 120.345 268.765,124.468 270.730,129.334 266.126 C 134.298 261.429,145.178 252.933,152.933 247.698 C 155.390 246.040,157.733 244.395,158.139 244.044 C 158.546 243.693,160.574 242.496,162.647 241.385 C 167.487 238.790,168.800 237.649,168.800 236.036 C 168.800 235.356,168.642 234.800,168.449 234.800 C 168.255 234.800,167.855 234.215,167.559 233.500 C 165.810 229.277,156.244 222.149,154.145 223.506 M242.000 224.185 C 237.240 226.691,231.200 233.658,231.200 236.641 C 231.200 237.685,232.573 238.834,236.200 240.827 C 237.520 241.552,239.320 242.625,240.200 243.211 C 241.080 243.797,243.690 245.517,246.000 247.033 C 253.226 251.775,265.496 261.294,270.828 266.294 C 275.082 270.283,275.301 270.430,276.800 270.311 C 278.814 270.151,278.782 267.835,276.738 265.898 C 270.324 259.822,254.803 239.056,248.711 228.400 C 245.433 222.668,245.182 222.510,242.000 224.185 " stroke="none" fill="#f8f8f8" fill-rule="evenodd"></path><path id="path1" d="M187.857 1.800 C 187.527 2.130,187.064 2.400,186.829 2.400 C 186.593 2.400,186.400 2.580,186.400 2.800 C 186.400 3.020,186.139 3.200,185.819 3.200 C 185.063 3.200,181.200 7.063,181.200 7.819 C 181.200 8.139,181.020 8.400,180.800 8.400 C 180.580 8.400,180.400 8.670,180.400 9.000 C 180.400 9.330,180.223 9.600,180.008 9.600 C 179.792 9.600,179.502 10.050,179.364 10.600 C 179.226 11.150,178.953 11.600,178.757 11.600 C 178.555 11.600,178.400 17.254,178.400 24.600 C 178.400 33.000,178.542 37.600,178.800 37.600 C 179.049 37.600,179.200 39.867,179.200 43.600 C 179.200 49.333,179.164 49.600,178.400 49.600 C 177.960 49.600,177.600 49.780,177.600 50.000 C 177.600 50.231,176.344 50.400,174.633 50.400 C 172.950 50.400,171.607 50.579,171.529 50.813 C 171.453 51.040,169.818 51.336,167.896 51.472 C 165.973 51.608,164.400 51.872,164.400 52.059 C 164.400 52.247,163.965 52.400,163.433 52.400 C 162.902 52.400,162.398 52.607,162.313 52.860 C 162.229 53.114,161.134 53.406,159.880 53.510 C 158.626 53.614,157.600 53.857,157.600 54.050 C 157.600 54.242,157.150 54.400,156.600 54.400 C 156.050 54.400,155.600 54.559,155.600 54.754 C 155.600 54.949,154.610 55.232,153.400 55.383 C 152.190 55.534,151.200 55.825,151.200 56.029 C 151.200 56.233,150.840 56.400,150.400 56.400 C 149.960 56.400,149.600 56.557,149.600 56.749 C 149.600 56.941,148.880 57.213,148.000 57.354 C 147.120 57.494,146.400 57.787,146.400 58.005 C 146.400 58.222,145.789 58.400,145.043 58.400 C 144.205 58.400,143.597 58.630,143.455 59.000 C 143.315 59.366,142.709 59.600,141.901 59.600 C 141.030 59.600,140.377 59.877,139.992 60.411 C 139.667 60.862,138.742 61.328,137.904 61.462 C 137.077 61.594,136.400 61.859,136.400 62.051 C 136.400 62.243,136.130 62.400,135.800 62.400 C 135.470 62.400,135.200 62.580,135.200 62.800 C 135.200 63.020,134.834 63.200,134.387 63.200 C 133.941 63.200,133.471 63.470,133.345 63.800 C 133.218 64.130,132.774 64.400,132.357 64.400 C 131.941 64.400,131.600 64.566,131.600 64.768 C 131.600 64.971,131.060 65.255,130.400 65.400 C 129.740 65.545,129.200 65.829,129.200 66.032 C 129.200 66.234,128.859 66.400,128.443 66.400 C 128.026 66.400,127.582 66.670,127.455 67.000 C 127.329 67.330,126.851 67.600,126.394 67.600 C 125.937 67.600,125.114 68.050,124.564 68.600 C 124.014 69.150,123.302 69.600,122.982 69.600 C 122.662 69.600,122.400 69.780,122.400 70.000 C 122.400 70.220,122.130 70.400,121.800 70.400 C 121.470 70.400,121.200 70.580,121.200 70.800 C 121.200 71.020,120.865 71.200,120.456 71.200 C 120.047 71.200,119.382 71.639,118.979 72.176 C 118.576 72.713,117.831 73.256,117.323 73.384 C 116.815 73.511,116.400 73.792,116.400 74.008 C 116.400 74.223,116.207 74.400,115.971 74.400 C 115.736 74.400,115.292 74.625,114.985 74.900 C 113.752 76.006,113.221 76.400,112.964 76.400 C 112.816 76.400,112.100 77.030,111.374 77.800 C 110.648 78.570,109.870 79.200,109.645 79.200 C 109.420 79.200,108.808 79.628,108.284 80.152 C 107.761 80.676,106.952 81.225,106.487 81.373 C 106.021 81.520,105.533 81.983,105.400 82.400 C 105.267 82.817,104.817 83.267,104.400 83.400 C 103.983 83.533,103.533 83.983,103.400 84.400 C 103.267 84.817,102.817 85.267,102.400 85.400 C 101.983 85.533,101.530 85.992,101.394 86.420 C 101.257 86.849,100.838 87.200,100.462 87.200 C 99.843 87.200,98.400 88.483,98.400 89.033 C 98.400 89.324,97.324 90.400,97.033 90.400 C 96.483 90.400,95.200 91.843,95.200 92.462 C 95.200 92.838,94.849 93.257,94.420 93.394 C 93.992 93.530,93.533 93.983,93.400 94.400 C 93.267 94.817,92.817 95.267,92.400 95.400 C 91.983 95.533,91.533 95.983,91.400 96.400 C 91.267 96.817,90.817 97.267,90.400 97.400 C 89.983 97.533,89.533 97.983,89.400 98.400 C 89.267 98.817,88.808 99.270,88.380 99.406 C 87.951 99.543,87.600 99.977,87.600 100.371 C 87.600 100.765,87.150 101.426,86.600 101.839 C 86.050 102.252,85.600 102.810,85.600 103.079 C 85.600 103.349,84.880 104.282,84.000 105.153 C 83.120 106.024,82.400 106.931,82.400 107.169 C 82.400 107.406,82.243 107.600,82.050 107.600 C 81.858 107.600,81.587 108.164,81.449 108.854 C 81.311 109.543,80.865 110.398,80.456 110.754 C 80.048 111.109,79.589 111.796,79.437 112.280 C 79.284 112.763,78.808 113.270,78.380 113.406 C 77.951 113.543,77.600 114.007,77.600 114.440 C 77.600 114.872,77.330 115.329,77.000 115.455 C 76.670 115.582,76.400 116.026,76.400 116.443 C 76.400 116.859,76.240 117.200,76.043 117.200 C 75.847 117.200,75.574 117.650,75.436 118.200 C 75.298 118.750,75.008 119.200,74.792 119.200 C 74.577 119.200,74.400 119.631,74.400 120.157 C 74.400 120.684,74.130 121.218,73.800 121.345 C 73.470 121.471,73.200 121.991,73.200 122.499 C 73.200 123.007,72.841 123.682,72.402 123.999 C 71.963 124.315,71.494 125.159,71.360 125.873 C 71.213 126.655,70.814 127.269,70.358 127.413 C 69.812 127.587,69.600 128.030,69.600 128.998 C 69.600 129.738,69.330 130.613,69.000 130.943 C 68.670 131.273,68.400 131.896,68.400 132.329 C 68.400 132.761,68.130 133.218,67.800 133.345 C 67.470 133.471,67.200 133.941,67.200 134.387 C 67.200 134.834,67.020 135.200,66.800 135.200 C 66.580 135.200,66.400 135.663,66.400 136.229 C 66.400 136.794,66.130 137.527,65.800 137.857 C 65.470 138.187,65.200 139.074,65.200 139.829 C 65.200 140.583,65.020 141.200,64.800 141.200 C 64.580 141.200,64.400 141.455,64.400 141.767 C 64.400 142.078,64.202 142.399,63.961 142.480 C 63.719 142.560,63.426 143.475,63.309 144.513 C 63.192 145.551,62.939 146.400,62.748 146.400 C 62.557 146.400,62.400 146.670,62.400 147.000 C 62.400 147.330,62.246 147.600,62.058 147.600 C 61.870 147.600,61.602 148.814,61.464 150.298 C 61.325 151.782,61.029 153.057,60.806 153.131 C 60.583 153.206,60.400 153.702,60.400 154.233 C 60.400 154.765,60.246 155.200,60.058 155.200 C 59.870 155.200,59.607 156.503,59.473 158.095 C 59.340 159.687,59.044 161.052,58.815 161.128 C 58.579 161.207,58.400 162.528,58.400 164.200 C 58.400 166.191,58.239 167.187,57.900 167.300 C 57.507 167.431,57.400 172.729,57.400 192.000 C 57.400 211.271,57.507 216.569,57.900 216.700 C 58.239 216.813,58.400 217.809,58.400 219.800 C 58.400 221.472,58.579 222.793,58.815 222.872 C 59.044 222.948,59.340 224.313,59.473 225.905 C 59.607 227.497,59.870 228.800,60.058 228.800 C 60.246 228.800,60.400 229.235,60.400 229.767 C 60.400 230.298,60.583 230.794,60.806 230.869 C 61.029 230.943,61.325 232.218,61.464 233.702 C 61.602 235.186,61.870 236.400,62.058 236.400 C 62.246 236.400,62.400 236.670,62.400 237.000 C 62.400 237.330,62.557 237.600,62.748 237.600 C 62.939 237.600,63.192 238.449,63.309 239.487 C 63.426 240.525,63.719 241.440,63.961 241.520 C 64.202 241.601,64.400 241.922,64.400 242.233 C 64.400 242.545,64.580 242.800,64.800 242.800 C 65.020 242.800,65.200 243.417,65.200 244.171 C 65.200 244.926,65.470 245.813,65.800 246.143 C 66.130 246.473,66.400 247.206,66.400 247.771 C 66.400 248.337,66.580 248.800,66.800 248.800 C 67.020 248.800,67.200 249.166,67.200 249.613 C 67.200 250.059,67.470 250.529,67.800 250.655 C 68.130 250.782,68.400 251.316,68.400 251.843 C 68.400 252.369,68.569 252.800,68.775 252.800 C 68.982 252.800,69.272 253.604,69.419 254.587 C 69.600 255.794,69.918 256.447,70.400 256.600 C 70.880 256.752,71.200 257.404,71.378 258.593 C 71.566 259.849,71.868 260.431,72.421 260.607 C 72.850 260.743,73.200 261.207,73.200 261.640 C 73.200 262.072,73.470 262.529,73.800 262.655 C 74.130 262.782,74.400 263.239,74.400 263.671 C 74.400 264.104,74.670 264.727,75.000 265.057 C 75.330 265.387,75.600 266.052,75.600 266.534 C 75.600 267.016,76.050 267.748,76.600 268.161 C 77.150 268.574,77.600 269.235,77.600 269.629 C 77.600 270.023,77.960 270.460,78.400 270.600 C 78.910 270.762,79.200 271.205,79.200 271.823 C 79.200 272.379,79.712 273.282,80.400 273.940 C 81.060 274.571,81.600 275.382,81.600 275.743 C 81.600 276.104,81.780 276.400,82.000 276.400 C 82.220 276.400,82.400 276.604,82.400 276.853 C 82.400 277.102,83.030 277.900,83.800 278.626 C 84.570 279.352,85.200 280.137,85.200 280.370 C 85.200 280.603,85.740 281.309,86.400 281.940 C 87.060 282.571,87.600 283.370,87.600 283.716 C 87.600 284.063,87.951 284.457,88.380 284.594 C 88.808 284.730,89.270 285.192,89.406 285.620 C 89.543 286.049,89.822 286.400,90.027 286.400 C 90.232 286.400,90.400 286.591,90.400 286.825 C 90.400 287.479,101.355 298.268,102.335 298.579 C 102.811 298.730,103.200 299.162,103.200 299.538 C 103.200 300.249,104.514 301.600,105.205 301.600 C 105.422 301.600,105.600 301.768,105.600 301.973 C 105.600 302.178,105.951 302.457,106.380 302.594 C 106.808 302.730,107.267 303.183,107.400 303.600 C 107.533 304.017,108.037 304.484,108.520 304.637 C 109.004 304.789,109.691 305.249,110.047 305.657 C 110.403 306.066,110.891 306.400,111.131 306.400 C 111.372 306.400,112.282 307.120,113.153 308.000 C 114.024 308.880,114.931 309.600,115.169 309.600 C 115.406 309.600,115.600 309.768,115.600 309.973 C 115.600 310.178,115.990 310.470,116.466 310.621 C 116.942 310.772,117.761 311.324,118.284 311.848 C 118.808 312.372,119.666 312.800,120.191 312.800 C 120.795 312.800,121.240 313.094,121.400 313.600 C 121.540 314.042,122.005 314.400,122.440 314.400 C 122.872 314.400,123.329 314.670,123.455 315.000 C 123.582 315.330,124.007 315.600,124.400 315.600 C 124.793 315.600,125.218 315.870,125.345 316.200 C 125.471 316.530,125.941 316.800,126.387 316.800 C 126.834 316.800,127.200 316.980,127.200 317.200 C 127.200 317.420,127.631 317.600,128.157 317.600 C 128.684 317.600,129.218 317.870,129.345 318.200 C 129.471 318.530,129.928 318.800,130.360 318.800 C 130.793 318.800,131.257 319.150,131.393 319.579 C 131.569 320.133,132.152 320.434,133.420 320.624 C 134.399 320.771,135.200 321.050,135.200 321.245 C 135.200 321.440,135.470 321.600,135.800 321.600 C 136.130 321.600,136.400 321.780,136.400 322.000 C 136.400 322.220,136.837 322.400,137.371 322.400 C 137.906 322.400,138.613 322.670,138.943 323.000 C 139.273 323.330,139.896 323.600,140.329 323.600 C 140.761 323.600,141.218 323.870,141.345 324.200 C 141.471 324.530,141.941 324.800,142.387 324.800 C 142.834 324.800,143.200 324.980,143.200 325.200 C 143.200 325.420,143.663 325.600,144.229 325.600 C 144.794 325.600,145.527 325.870,145.857 326.200 C 146.187 326.530,147.164 326.800,148.029 326.800 C 148.893 326.800,149.600 326.980,149.600 327.200 C 149.600 327.420,149.945 327.600,150.367 327.600 C 150.788 327.600,151.199 327.798,151.280 328.039 C 151.360 328.281,152.275 328.574,153.313 328.691 C 154.351 328.808,155.200 329.061,155.200 329.252 C 155.200 329.443,155.470 329.600,155.800 329.600 C 156.130 329.600,156.400 329.757,156.400 329.948 C 156.400 330.140,157.480 330.419,158.800 330.568 C 160.120 330.718,161.200 331.011,161.200 331.220 C 161.200 331.429,161.650 331.600,162.200 331.600 C 162.750 331.600,163.200 331.754,163.200 331.941 C 163.200 332.129,164.595 332.400,166.300 332.544 C 168.005 332.688,169.460 332.985,169.533 333.203 C 169.607 333.421,170.436 333.600,171.376 333.600 L 173.084 333.600 173.290 346.483 C 173.435 355.535,173.631 359.410,173.948 359.516 C 174.197 359.599,174.400 360.102,174.400 360.633 C 174.400 361.165,174.553 361.600,174.741 361.600 C 174.928 361.600,175.192 363.173,175.328 365.096 C 175.464 367.018,175.760 368.653,175.987 368.729 C 176.214 368.805,176.400 369.302,176.400 369.833 C 176.400 370.365,176.554 370.800,176.742 370.800 C 176.930 370.800,177.193 372.103,177.327 373.695 C 177.460 375.287,177.756 376.652,177.985 376.728 C 178.213 376.804,178.400 377.647,178.400 378.600 C 178.400 379.553,178.598 380.399,178.839 380.480 C 179.081 380.560,179.374 381.475,179.491 382.513 C 179.608 383.551,179.861 384.400,180.052 384.400 C 180.243 384.400,180.400 384.831,180.400 385.357 C 180.400 385.884,180.670 386.418,181.000 386.545 C 181.358 386.682,181.600 387.285,181.600 388.041 C 181.600 388.775,181.912 389.578,182.343 389.953 C 182.751 390.309,183.226 391.044,183.397 391.586 C 183.568 392.128,184.314 393.160,185.054 393.879 C 185.794 394.598,186.400 395.369,186.400 395.593 C 186.400 396.224,187.927 397.600,188.629 397.600 C 188.974 397.600,189.527 397.870,189.857 398.200 C 190.187 398.530,190.894 398.800,191.429 398.800 C 191.963 398.800,192.400 398.980,192.400 399.200 C 192.400 399.453,195.200 399.600,200.000 399.600 C 204.800 399.600,207.600 399.453,207.600 399.200 C 207.600 398.980,208.037 398.800,208.571 398.800 C 209.106 398.800,209.813 398.530,210.143 398.200 C 210.473 397.870,211.026 397.600,211.371 397.600 C 212.073 397.600,213.600 396.224,213.600 395.593 C 213.600 395.369,214.232 394.572,215.004 393.822 C 215.796 393.053,216.522 391.879,216.669 391.129 C 216.813 390.398,217.234 389.530,217.605 389.200 C 217.976 388.870,218.404 387.925,218.558 387.100 C 218.711 386.275,219.008 385.600,219.218 385.600 C 219.428 385.600,219.600 385.330,219.600 385.000 C 219.600 384.670,219.758 384.400,219.950 384.400 C 220.143 384.400,220.386 383.374,220.490 382.120 C 220.594 380.866,220.886 379.771,221.140 379.687 C 221.402 379.599,221.600 378.703,221.600 377.600 C 221.600 376.537,221.778 375.607,221.996 375.533 C 222.214 375.460,222.510 374.275,222.653 372.900 C 222.797 371.525,223.068 370.400,223.257 370.400 C 223.446 370.400,223.600 369.965,223.600 369.433 C 223.600 368.902,223.779 368.407,223.998 368.333 C 224.216 368.260,224.513 366.535,224.657 364.500 C 224.802 362.465,225.073 360.800,225.260 360.800 C 225.447 360.800,225.600 360.080,225.600 359.200 C 225.600 358.320,225.780 357.600,226.000 357.600 C 226.258 357.600,226.400 353.333,226.400 345.600 L 226.400 333.600 228.000 333.600 C 228.880 333.600,229.600 333.436,229.600 333.236 C 229.600 333.036,231.130 332.744,233.000 332.589 C 234.870 332.433,236.400 332.147,236.400 331.953 C 236.400 331.759,236.835 331.600,237.367 331.600 C 237.898 331.600,238.393 331.422,238.467 331.204 C 238.540 330.986,239.725 330.690,241.100 330.547 C 242.475 330.403,243.600 330.132,243.600 329.943 C 243.600 329.754,243.870 329.600,244.200 329.600 C 244.530 329.600,244.800 329.443,244.800 329.252 C 244.800 329.061,245.649 328.808,246.687 328.691 C 247.725 328.574,248.640 328.281,248.720 328.039 C 248.801 327.798,249.212 327.600,249.633 327.600 C 250.055 327.600,250.400 327.420,250.400 327.200 C 250.400 326.980,251.107 326.800,251.971 326.800 C 252.836 326.800,253.813 326.530,254.143 326.200 C 254.473 325.870,255.129 325.600,255.600 325.600 C 256.071 325.600,256.727 325.330,257.057 325.000 C 257.387 324.670,258.094 324.400,258.629 324.400 C 259.163 324.400,259.600 324.220,259.600 324.000 C 259.600 323.780,259.793 323.600,260.029 323.600 C 260.264 323.600,260.727 323.330,261.057 323.000 C 261.387 322.670,262.262 322.400,263.002 322.400 C 263.995 322.400,264.412 322.191,264.600 321.600 C 264.760 321.094,265.205 320.800,265.809 320.800 C 266.334 320.800,267.214 320.350,267.764 319.800 C 268.314 319.250,269.137 318.800,269.594 318.800 C 270.051 318.800,270.529 318.530,270.655 318.200 C 270.782 317.870,271.316 317.600,271.843 317.600 C 272.369 317.600,272.800 317.423,272.800 317.208 C 272.800 316.992,273.250 316.702,273.800 316.564 C 274.350 316.426,274.800 316.153,274.800 315.957 C 274.800 315.760,275.079 315.600,275.419 315.600 C 275.760 315.600,276.455 315.150,276.965 314.600 C 277.475 314.050,278.096 313.600,278.346 313.600 C 278.596 313.600,278.800 313.432,278.800 313.227 C 278.800 313.022,279.205 312.726,279.700 312.570 C 280.195 312.413,280.891 311.952,281.246 311.544 C 281.602 311.135,282.451 310.690,283.134 310.553 C 283.835 310.413,284.478 309.986,284.609 309.573 C 284.736 309.170,285.192 308.730,285.620 308.594 C 286.049 308.457,286.400 308.178,286.400 307.973 C 286.400 307.768,286.670 307.600,287.000 307.600 C 287.330 307.600,287.600 307.423,287.600 307.208 C 287.600 306.992,288.015 306.711,288.523 306.584 C 289.031 306.456,289.776 305.913,290.179 305.376 C 290.582 304.839,291.235 304.400,291.629 304.400 C 292.023 304.400,292.457 304.049,292.594 303.620 C 292.730 303.192,293.183 302.733,293.600 302.600 C 294.017 302.467,294.467 302.017,294.600 301.600 C 294.733 301.183,295.183 300.733,295.600 300.600 C 296.017 300.467,296.467 300.017,296.600 299.600 C 296.733 299.183,297.183 298.733,297.600 298.600 C 298.017 298.467,298.470 298.008,298.606 297.580 C 298.743 297.151,299.162 296.800,299.538 296.800 C 300.157 296.800,301.600 295.517,301.600 294.967 C 301.600 294.676,302.676 293.600,302.967 293.600 C 303.517 293.600,304.800 292.157,304.800 291.538 C 304.800 291.162,305.151 290.743,305.580 290.606 C 306.008 290.470,306.467 290.017,306.600 289.600 C 306.733 289.183,307.183 288.733,307.600 288.600 C 308.017 288.467,308.467 288.017,308.600 287.600 C 308.733 287.183,309.183 286.733,309.600 286.600 C 310.017 286.467,310.467 286.017,310.600 285.600 C 310.733 285.183,311.192 284.730,311.620 284.594 C 312.049 284.457,312.400 284.023,312.400 283.629 C 312.400 283.235,312.850 282.574,313.400 282.161 C 313.950 281.748,314.400 281.190,314.400 280.921 C 314.400 280.651,315.120 279.718,316.000 278.847 C 316.880 277.976,317.600 277.069,317.600 276.831 C 317.600 276.594,317.757 276.400,317.950 276.400 C 318.143 276.400,318.413 275.836,318.551 275.146 C 318.689 274.457,319.135 273.602,319.544 273.246 C 319.952 272.891,320.411 272.204,320.563 271.720 C 320.716 271.237,321.192 270.730,321.620 270.594 C 322.049 270.457,322.400 269.993,322.400 269.560 C 322.400 269.128,322.670 268.671,323.000 268.545 C 323.330 268.418,323.600 267.974,323.600 267.557 C 323.600 267.141,323.760 266.800,323.957 266.800 C 324.153 266.800,324.426 266.350,324.564 265.800 C 324.702 265.250,324.992 264.800,325.208 264.800 C 325.423 264.800,325.600 264.369,325.600 263.843 C 325.600 263.316,325.870 262.782,326.200 262.655 C 326.530 262.529,326.800 262.009,326.800 261.501 C 326.800 260.993,327.159 260.318,327.598 260.001 C 328.037 259.685,328.507 258.835,328.643 258.113 C 328.778 257.391,329.049 256.800,329.245 256.800 C 329.440 256.800,329.600 256.530,329.600 256.200 C 329.600 255.870,329.780 255.600,330.000 255.600 C 330.220 255.600,330.400 255.163,330.400 254.629 C 330.400 254.094,330.670 253.387,331.000 253.057 C 331.330 252.727,331.600 252.084,331.600 251.629 C 331.600 251.173,331.760 250.800,331.957 250.800 C 332.153 250.800,332.426 250.350,332.564 249.800 C 332.702 249.250,332.992 248.800,333.208 248.800 C 333.423 248.800,333.600 248.337,333.600 247.771 C 333.600 247.206,333.870 246.473,334.200 246.143 C 334.530 245.813,334.800 244.902,334.800 244.118 C 334.800 243.151,335.081 242.450,335.675 241.935 C 336.343 241.356,336.592 240.608,336.723 238.788 C 336.818 237.474,337.055 236.400,337.248 236.400 C 337.442 236.400,337.600 236.040,337.600 235.600 C 337.600 235.160,337.759 234.800,337.954 234.800 C 338.149 234.800,338.432 233.810,338.583 232.600 C 338.734 231.390,339.025 230.400,339.229 230.400 C 339.433 230.400,339.600 230.040,339.600 229.600 C 339.600 229.160,339.753 228.800,339.941 228.800 C 340.129 228.800,340.403 227.225,340.550 225.300 C 340.698 223.375,340.994 221.740,341.209 221.667 C 341.424 221.593,341.600 220.213,341.600 218.600 C 341.600 216.609,341.761 215.613,342.100 215.500 C 342.492 215.369,342.600 210.311,342.600 192.000 C 342.600 173.689,342.492 168.631,342.100 168.500 C 341.761 168.387,341.600 167.391,341.600 165.400 C 341.600 163.728,341.421 162.407,341.185 162.328 C 340.956 162.252,340.660 160.887,340.527 159.295 C 340.393 157.703,340.130 156.400,339.942 156.400 C 339.754 156.400,339.600 155.965,339.600 155.433 C 339.600 154.902,339.422 154.407,339.204 154.333 C 338.986 154.260,338.690 153.075,338.547 151.700 C 338.403 150.325,338.132 149.200,337.943 149.200 C 337.754 149.200,337.600 148.840,337.600 148.400 C 337.600 147.960,337.441 147.600,337.246 147.600 C 337.051 147.600,336.768 146.610,336.617 145.400 C 336.466 144.190,336.175 143.200,335.971 143.200 C 335.767 143.200,335.600 142.840,335.600 142.400 C 335.600 141.960,335.420 141.600,335.200 141.600 C 334.980 141.600,334.800 141.073,334.800 140.429 C 334.800 139.784,334.530 138.987,334.200 138.657 C 333.870 138.327,333.600 137.524,333.600 136.871 C 333.600 136.186,333.347 135.588,333.000 135.455 C 332.634 135.315,332.400 134.709,332.400 133.901 C 332.400 133.030,332.123 132.377,331.589 131.992 C 331.138 131.667,330.672 130.742,330.538 129.904 C 330.406 129.077,330.141 128.400,329.949 128.400 C 329.757 128.400,329.600 128.130,329.600 127.800 C 329.600 127.470,329.440 127.200,329.245 127.200 C 329.049 127.200,328.778 126.609,328.643 125.887 C 328.507 125.165,328.037 124.315,327.598 123.999 C 327.159 123.682,326.800 123.007,326.800 122.499 C 326.800 121.991,326.530 121.471,326.200 121.345 C 325.870 121.218,325.600 120.684,325.600 120.157 C 325.600 119.631,325.432 119.200,325.227 119.200 C 325.022 119.200,324.730 118.810,324.579 118.334 C 324.428 117.858,323.876 117.039,323.352 116.516 C 322.828 115.992,322.400 115.342,322.400 115.070 C 322.400 114.799,322.040 114.317,321.600 114.000 C 321.160 113.683,320.800 113.078,320.800 112.655 C 320.800 112.232,320.260 111.371,319.600 110.740 C 318.940 110.109,318.400 109.325,318.400 108.997 C 318.400 108.668,318.220 108.400,318.000 108.400 C 317.780 108.400,317.600 108.207,317.600 107.971 C 317.600 107.736,317.375 107.292,317.100 106.985 C 315.994 105.752,315.600 105.221,315.600 104.964 C 315.600 104.816,314.970 104.100,314.200 103.374 C 313.430 102.648,312.800 101.870,312.800 101.645 C 312.800 101.420,312.372 100.808,311.848 100.284 C 311.324 99.761,310.775 98.952,310.627 98.487 C 310.480 98.021,310.017 97.533,309.600 97.400 C 309.183 97.267,308.733 96.817,308.600 96.400 C 308.467 95.983,308.017 95.533,307.600 95.400 C 307.183 95.267,306.733 94.817,306.600 94.400 C 306.467 93.983,306.008 93.530,305.580 93.394 C 305.151 93.257,304.800 92.838,304.800 92.462 C 304.800 91.843,303.517 90.400,302.967 90.400 C 302.676 90.400,301.600 89.324,301.600 89.033 C 301.600 88.483,300.157 87.200,299.538 87.200 C 299.162 87.200,298.743 86.849,298.606 86.420 C 298.470 85.992,298.017 85.533,297.600 85.400 C 297.183 85.267,296.733 84.817,296.600 84.400 C 296.467 83.983,296.008 83.530,295.580 83.394 C 295.151 83.257,294.800 82.978,294.800 82.773 C 294.800 82.568,294.606 82.400,294.369 82.400 C 294.131 82.400,293.224 81.680,292.353 80.800 C 291.482 79.920,290.589 79.200,290.370 79.200 C 290.150 79.200,289.207 78.415,288.275 77.455 C 287.342 76.496,286.179 75.584,285.689 75.428 C 285.200 75.273,284.800 74.978,284.800 74.773 C 284.800 74.568,284.530 74.400,284.200 74.400 C 283.870 74.400,283.600 74.220,283.600 74.000 C 283.600 73.780,283.338 73.600,283.018 73.600 C 282.698 73.600,282.008 73.172,281.484 72.648 C 280.961 72.124,280.097 71.559,279.566 71.391 C 279.035 71.223,278.330 70.777,278.000 70.400 C 277.670 70.023,276.995 69.587,276.500 69.430 C 276.005 69.274,275.600 68.978,275.600 68.773 C 275.600 68.568,275.330 68.400,275.000 68.400 C 274.670 68.400,274.400 68.220,274.400 68.000 C 274.400 67.780,274.034 67.600,273.587 67.600 C 273.141 67.600,272.671 67.330,272.545 67.000 C 272.418 66.670,271.884 66.400,271.357 66.400 C 270.831 66.400,270.400 66.223,270.400 66.008 C 270.400 65.792,269.950 65.502,269.400 65.364 C 268.850 65.226,268.400 64.953,268.400 64.757 C 268.400 64.560,268.059 64.400,267.643 64.400 C 267.226 64.400,266.782 64.130,266.655 63.800 C 266.529 63.470,266.036 63.200,265.559 63.200 C 265.083 63.200,264.403 62.867,264.047 62.460 C 263.691 62.054,262.725 61.596,261.900 61.442 C 261.075 61.289,260.400 60.992,260.400 60.782 C 260.400 60.572,260.040 60.400,259.600 60.400 C 259.160 60.400,258.800 60.243,258.800 60.051 C 258.800 59.859,258.080 59.587,257.200 59.446 C 256.320 59.306,255.600 59.013,255.600 58.795 C 255.600 58.578,255.165 58.400,254.633 58.400 C 254.102 58.400,253.601 58.202,253.520 57.961 C 253.440 57.719,252.525 57.426,251.487 57.309 C 250.449 57.192,249.600 56.939,249.600 56.748 C 249.600 56.557,249.330 56.400,249.000 56.400 C 248.670 56.400,248.400 56.226,248.400 56.014 C 248.400 55.801,247.500 55.508,246.400 55.362 C 245.300 55.216,244.400 54.940,244.400 54.748 C 244.400 54.557,243.950 54.400,243.400 54.400 C 242.850 54.400,242.400 54.242,242.400 54.050 C 242.400 53.857,241.374 53.614,240.120 53.510 C 238.866 53.406,237.771 53.114,237.687 52.860 C 237.602 52.607,236.918 52.400,236.167 52.400 C 235.415 52.400,234.800 52.246,234.800 52.059 C 234.800 51.871,233.405 51.600,231.700 51.456 C 229.995 51.312,228.540 51.015,228.467 50.797 C 228.393 50.579,226.896 50.400,225.138 50.400 C 220.403 50.400,220.801 52.183,220.796 30.929 C 220.791 11.359,220.701 9.750,219.597 9.399 C 219.211 9.277,218.788 8.639,218.656 7.982 C 218.400 6.699,215.112 3.200,214.163 3.200 C 213.853 3.200,213.600 3.020,213.600 2.800 C 213.600 2.580,213.407 2.400,213.171 2.400 C 212.936 2.400,212.473 2.130,212.143 1.800 C 211.637 1.294,209.727 1.200,200.000 1.200 C 190.273 1.200,188.363 1.294,187.857 1.800 M204.676 16.900 C 204.854 17.175,205.090 28.020,205.200 41.000 L 205.400 64.600 209.971 64.886 C 212.485 65.043,215.076 65.358,215.730 65.586 C 216.384 65.813,217.825 66.000,218.931 66.000 C 220.038 66.000,221.496 66.175,222.172 66.389 C 222.847 66.603,225.200 67.127,227.400 67.554 C 234.093 68.853,241.147 70.952,245.912 73.064 C 247.073 73.579,248.201 74.000,248.417 74.000 C 248.634 74.000,249.123 74.171,249.505 74.381 C 250.110 74.712,251.485 75.307,253.600 76.155 C 253.930 76.287,254.470 76.553,254.800 76.747 C 255.130 76.941,256.570 77.663,258.000 78.353 C 260.452 79.535,263.740 81.346,266.013 82.767 C 266.571 83.115,267.630 83.760,268.368 84.200 C 276.752 89.203,289.202 99.878,296.124 108.000 C 298.092 110.310,300.110 112.672,300.608 113.248 C 301.106 113.824,301.841 114.814,302.241 115.448 C 302.641 116.082,303.714 117.590,304.626 118.800 C 305.538 120.010,306.625 121.609,307.042 122.352 C 308.405 124.784,308.663 125.185,309.336 125.929 C 309.701 126.333,310.000 126.801,310.000 126.970 C 310.000 127.138,310.381 127.812,310.847 128.466 C 311.700 129.664,316.788 139.762,316.814 140.307 C 316.821 140.468,317.175 141.320,317.600 142.200 C 318.025 143.080,318.379 143.945,318.386 144.122 C 318.394 144.299,318.737 145.199,319.149 146.122 C 320.418 148.966,321.472 152.051,322.387 155.600 C 322.870 157.470,323.425 159.360,323.622 159.800 C 324.019 160.689,325.467 167.385,326.000 170.800 C 327.204 178.514,327.329 180.558,327.323 192.400 C 327.317 203.196,327.196 205.773,326.476 210.400 C 325.360 217.572,324.130 223.780,323.646 224.675 C 323.431 225.074,323.075 226.120,322.855 227.000 C 321.058 234.203,318.610 240.696,314.808 248.344 C 313.704 250.566,312.800 252.447,312.800 252.523 C 312.800 252.794,307.362 261.553,305.082 264.955 C 298.995 274.035,280.935 292.537,275.760 294.992 C 275.031 295.338,274.330 295.789,274.204 295.994 C 273.721 296.775,262.337 304.000,261.589 304.000 C 261.370 304.000,260.295 304.630,259.200 305.400 C 258.105 306.170,256.981 306.801,256.704 306.802 C 256.427 306.804,255.689 307.072,255.064 307.398 C 250.138 309.967,240.097 313.769,235.600 314.769 C 234.390 315.037,233.040 315.420,232.600 315.619 C 230.889 316.393,217.238 318.867,212.400 319.280 L 211.000 319.400 210.757 335.400 C 210.500 352.256,210.290 354.373,207.833 364.800 C 205.539 374.539,204.148 378.957,202.166 382.800 C 201.244 384.588,198.546 384.242,197.489 382.200 C 196.034 379.390,195.916 379.101,195.126 376.427 C 193.052 369.396,192.140 365.654,190.782 358.600 C 190.358 356.400,189.794 353.700,189.529 352.600 C 189.219 351.314,188.967 345.034,188.824 335.000 L 188.600 319.400 182.200 318.525 C 172.604 317.214,162.830 314.886,158.049 312.774 C 157.086 312.348,156.096 311.999,155.849 311.998 C 155.602 311.996,154.917 311.743,154.327 311.435 C 153.737 311.127,152.657 310.749,151.927 310.594 C 151.197 310.439,149.250 309.631,147.600 308.797 C 145.950 307.964,143.340 306.685,141.800 305.954 C 140.260 305.223,138.910 304.528,138.800 304.410 C 138.690 304.291,137.610 303.674,136.400 303.039 C 135.190 302.403,133.916 301.640,133.569 301.342 C 133.221 301.044,132.820 300.800,132.676 300.800 C 132.533 300.800,131.045 299.855,129.370 298.700 C 127.696 297.545,125.757 296.248,125.063 295.819 C 119.082 292.118,100.851 274.345,98.231 269.660 C 98.028 269.297,97.533 268.765,97.131 268.477 C 96.729 268.190,96.398 267.740,96.396 267.477 C 96.394 267.215,95.225 265.380,93.798 263.400 C 92.372 261.420,90.823 259.080,90.357 258.200 C 89.890 257.320,88.895 255.520,88.145 254.200 C 86.420 251.163,82.000 242.081,82.000 241.572 C 82.000 241.361,81.829 240.877,81.619 240.495 C 81.252 239.824,80.820 238.797,79.476 235.400 C 79.127 234.520,78.383 232.180,77.821 230.200 C 77.259 228.220,76.622 226.054,76.405 225.387 C 75.695 223.200,74.314 216.654,74.003 214.000 C 73.835 212.570,73.456 210.230,73.160 208.800 C 72.421 205.238,72.418 178.478,73.155 175.000 C 73.435 173.680,73.813 171.340,73.996 169.800 C 74.369 166.659,75.753 160.798,77.396 155.400 C 77.999 153.420,78.636 151.260,78.811 150.600 C 79.266 148.887,81.800 142.761,83.634 138.939 C 84.495 137.146,85.200 135.587,85.200 135.475 C 85.200 135.236,87.785 130.580,90.127 126.600 C 91.033 125.060,92.005 123.656,92.287 123.480 C 92.569 123.304,92.800 122.926,92.800 122.640 C 92.800 121.980,98.392 114.000,98.855 114.000 C 99.045 114.000,99.200 113.781,99.200 113.514 C 99.200 113.247,99.552 112.662,99.982 112.214 C 100.412 111.766,102.290 109.674,104.155 107.564 C 107.889 103.342,116.128 95.315,118.529 93.561 C 119.371 92.947,120.917 91.700,121.965 90.791 C 123.013 89.882,124.234 88.927,124.678 88.669 C 125.122 88.411,126.456 87.551,127.643 86.758 C 134.456 82.202,135.806 81.423,143.200 77.783 C 151.823 73.538,155.887 71.894,162.000 70.180 C 164.090 69.593,166.970 68.768,168.400 68.345 C 169.830 67.923,172.260 67.386,173.800 67.153 C 175.340 66.920,176.960 66.572,177.400 66.380 C 177.840 66.188,179.370 65.941,180.800 65.830 C 182.230 65.719,185.920 65.397,189.000 65.114 L 194.600 64.600 194.534 48.000 C 194.498 38.870,194.348 28.518,194.201 24.996 C 193.841 16.382,193.829 16.400,200.005 16.400 C 203.044 16.400,204.450 16.551,204.676 16.900 M187.800 75.226 C 186.700 75.407,185.170 75.664,184.400 75.796 C 183.630 75.929,181.110 76.321,178.800 76.669 C 176.490 77.016,174.429 77.458,174.220 77.650 C 174.011 77.843,173.506 78.000,173.098 78.000 C 172.264 78.000,165.433 79.830,164.200 80.384 C 163.760 80.581,162.410 81.048,161.200 81.421 C 159.990 81.793,158.829 82.256,158.620 82.449 C 158.411 82.642,157.961 82.806,157.620 82.814 C 157.279 82.821,156.280 83.175,155.400 83.600 C 154.520 84.025,153.620 84.378,153.400 84.383 C 152.821 84.399,142.225 89.743,142.067 90.100 C 141.993 90.265,141.706 90.400,141.429 90.400 C 141.151 90.400,140.598 90.760,140.200 91.200 C 139.802 91.640,139.296 92.000,139.076 92.000 C 138.856 92.000,138.119 92.418,137.438 92.929 C 136.757 93.441,135.912 93.965,135.560 94.094 C 134.689 94.414,125.588 101.295,124.638 102.352 C 124.219 102.818,123.650 103.200,123.373 103.200 C 122.806 103.200,111.844 114.053,110.849 115.600 C 110.495 116.150,108.966 118.125,107.451 119.990 C 105.936 121.854,104.225 124.076,103.648 124.927 C 100.869 129.029,99.565 131.110,99.026 132.304 C 98.702 133.021,97.825 134.551,97.075 135.704 C 95.458 138.192,92.000 145.107,92.000 145.853 C 92.000 146.140,91.669 146.966,91.265 147.688 C 90.860 148.410,90.127 150.260,89.636 151.800 C 89.144 153.340,88.577 154.960,88.374 155.400 C 87.909 156.412,86.560 160.961,86.184 162.787 C 86.027 163.550,85.737 164.450,85.540 164.787 C 85.344 165.124,84.815 167.470,84.366 170.000 C 83.917 172.530,83.395 175.434,83.206 176.454 C 81.808 184.008,82.019 205.871,83.526 209.600 C 83.749 210.150,84.152 212.220,84.422 214.200 C 84.692 216.180,85.131 218.340,85.397 219.000 C 85.663 219.660,86.205 221.460,86.600 223.000 C 88.560 230.621,90.620 236.098,94.198 243.200 C 94.919 244.630,95.641 246.236,95.803 246.769 C 95.965 247.302,96.258 247.932,96.455 248.169 C 97.197 249.066,98.800 251.648,98.800 251.948 C 98.800 252.440,104.459 260.671,107.498 264.600 C 107.668 264.820,108.426 265.810,109.182 266.800 C 112.042 270.544,123.309 281.603,126.813 284.105 C 127.356 284.493,129.420 286.000,131.400 287.454 C 133.380 288.909,135.405 290.285,135.900 290.514 C 136.395 290.742,136.800 291.059,136.800 291.218 C 136.800 291.377,137.115 291.610,137.500 291.736 C 137.885 291.862,139.100 292.517,140.200 293.192 C 141.300 293.867,142.605 294.624,143.100 294.874 C 143.595 295.124,144.000 295.480,144.000 295.664 C 144.000 295.849,144.257 296.000,144.570 296.000 C 144.884 296.000,146.768 296.810,148.757 297.800 C 150.746 298.790,152.517 299.600,152.693 299.600 C 152.868 299.600,153.639 299.934,154.406 300.341 C 155.173 300.749,156.520 301.312,157.400 301.593 C 158.280 301.874,159.180 302.227,159.400 302.376 C 159.759 302.620,162.658 303.557,168.675 305.373 C 169.816 305.718,171.085 306.000,171.495 306.000 C 171.905 306.000,172.411 306.165,172.620 306.366 C 172.829 306.567,174.890 307.029,177.200 307.393 C 179.510 307.757,181.760 308.221,182.200 308.424 C 182.640 308.627,184.260 308.840,185.800 308.897 L 188.600 309.000 188.703 280.423 C 188.770 261.640,188.667 251.707,188.403 251.443 C 188.181 251.221,188.000 250.372,188.000 249.555 C 188.000 244.032,184.119 232.991,180.001 226.800 C 179.342 225.810,178.803 224.775,178.802 224.500 C 178.801 224.225,178.661 224.000,178.490 224.000 C 178.320 224.000,177.379 222.899,176.399 221.554 C 174.585 219.062,170.079 214.800,169.259 214.800 C 169.010 214.800,168.582 214.440,168.307 214.000 C 168.032 213.560,167.674 213.200,167.510 213.200 C 167.346 213.200,166.264 212.615,165.106 211.900 C 160.993 209.361,159.933 208.797,156.800 207.477 C 156.030 207.153,154.140 206.354,152.600 205.702 C 148.448 203.944,141.471 201.686,138.013 200.981 C 137.250 200.826,136.350 200.543,136.013 200.354 C 135.282 199.944,125.215 198.000,123.821 198.000 C 123.285 198.000,122.750 197.843,122.632 197.652 C 122.514 197.460,121.558 197.195,120.508 197.062 C 119.459 196.929,116.620 196.536,114.200 196.188 C 107.111 195.169,96.044 194.051,92.780 194.025 C 89.473 193.998,88.800 193.646,88.800 191.947 C 88.800 190.524,88.937 190.490,96.800 189.988 C 105.370 189.441,115.481 188.214,123.000 186.808 C 124.320 186.561,126.417 186.210,127.660 186.028 C 128.903 185.846,130.108 185.581,130.337 185.439 C 130.566 185.297,131.799 184.999,133.077 184.777 C 134.355 184.554,136.570 184.023,138.000 183.596 C 139.430 183.169,142.310 182.341,144.400 181.756 C 146.490 181.171,148.555 180.446,148.989 180.146 C 149.423 179.846,150.060 179.600,150.404 179.600 C 150.749 179.600,151.737 179.240,152.600 178.800 C 153.463 178.360,154.336 178.000,154.540 178.000 C 155.023 178.000,163.490 173.727,164.797 172.824 C 165.348 172.442,166.071 172.034,166.402 171.915 C 169.760 170.716,178.464 161.140,181.048 155.800 C 181.580 154.700,182.166 153.530,182.349 153.200 C 182.709 152.554,183.461 150.916,184.786 147.900 C 185.245 146.855,185.720 145.415,185.842 144.700 C 185.965 143.985,186.227 143.040,186.425 142.600 C 187.531 140.147,187.723 137.448,187.889 122.100 L 188.063 106.000 186.963 106.000 C 185.539 106.000,179.238 107.133,178.200 107.576 C 177.760 107.764,175.960 108.268,174.200 108.696 C 172.440 109.124,170.167 109.804,169.148 110.206 C 166.540 111.235,165.300 110.666,164.098 107.886 C 162.468 104.118,163.397 102.669,168.267 101.387 C 169.770 100.992,171.180 100.539,171.400 100.381 C 171.620 100.223,173.330 99.789,175.200 99.416 C 177.070 99.043,178.913 98.572,179.295 98.369 C 179.677 98.166,181.074 98.000,182.400 98.000 C 183.726 98.000,185.123 97.819,185.505 97.597 C 185.887 97.375,188.090 97.060,190.400 96.897 L 194.600 96.600 194.600 85.800 L 194.600 75.000 192.200 74.948 C 190.880 74.919,188.900 75.044,187.800 75.226 M205.420 75.300 C 205.336 75.575,205.171 80.498,205.054 86.240 L 204.843 96.680 209.491 96.929 C 212.047 97.066,214.323 97.363,214.549 97.589 C 214.775 97.815,216.020 98.000,217.315 98.000 C 219.845 98.000,225.349 99.343,233.200 101.877 C 236.567 102.964,237.172 104.554,235.584 108.144 C 234.407 110.803,231.039 111.495,228.597 109.579 C 228.375 109.405,226.935 108.977,225.397 108.628 C 223.858 108.279,222.240 107.815,221.800 107.596 C 220.151 106.778,211.825 105.690,211.490 106.249 C 211.025 107.024,211.409 133.772,211.932 137.000 C 212.524 140.653,213.263 143.704,213.673 144.180 C 213.853 144.389,214.000 144.938,214.000 145.400 C 214.000 145.862,214.158 146.411,214.352 146.620 C 214.545 146.829,214.934 147.720,215.216 148.599 C 215.497 149.479,216.554 151.787,217.564 153.728 C 218.574 155.668,219.578 157.604,219.795 158.028 C 220.012 158.453,220.327 158.800,220.495 158.800 C 220.663 158.800,220.800 158.995,220.800 159.233 C 220.800 160.911,232.046 172.000,233.748 172.000 C 233.886 172.000,234.875 172.630,235.947 173.400 C 237.019 174.170,238.130 174.800,238.416 174.800 C 238.703 174.800,239.221 175.037,239.569 175.328 C 240.428 176.046,246.100 178.561,248.800 179.421 C 250.010 179.807,251.180 180.256,251.400 180.420 C 251.620 180.583,253.870 181.281,256.400 181.970 C 258.930 182.659,261.540 183.380,262.200 183.574 C 262.860 183.767,264.390 184.143,265.600 184.408 C 266.810 184.673,268.644 185.140,269.675 185.445 C 270.706 185.750,272.104 186.000,272.781 186.000 C 273.457 186.000,274.323 186.181,274.705 186.403 C 275.087 186.624,278.100 187.173,281.400 187.621 C 284.700 188.070,288.480 188.595,289.800 188.788 C 291.120 188.982,296.160 189.433,301.000 189.792 C 310.622 190.505,311.603 190.718,311.594 192.091 C 311.583 193.744,311.177 193.857,303.400 194.365 C 292.588 195.073,278.517 196.757,276.600 197.573 C 276.160 197.761,273.820 198.306,271.400 198.786 C 268.980 199.266,266.280 199.810,265.400 199.995 C 262.874 200.528,257.581 201.965,257.138 202.238 C 256.916 202.375,255.805 202.723,254.668 203.011 C 251.254 203.875,247.306 205.442,240.800 208.512 C 237.320 210.155,232.306 213.126,232.067 213.687 C 231.993 213.859,231.770 214.000,231.571 214.000 C 229.767 214.000,221.338 223.468,218.574 228.600 C 218.337 229.040,217.594 230.390,216.924 231.600 C 216.253 232.810,215.570 234.250,215.407 234.800 C 215.244 235.350,214.886 236.340,214.612 237.000 C 214.337 237.660,213.888 238.740,213.613 239.400 C 211.452 244.592,210.967 253.844,210.851 292.057 C 210.808 306.089,210.889 308.749,211.366 308.932 C 212.092 309.210,216.352 308.840,217.400 308.408 C 217.840 308.227,220.180 307.765,222.600 307.381 C 225.020 306.998,227.180 306.553,227.400 306.392 C 227.620 306.232,228.340 306.007,229.000 305.894 C 236.007 304.686,253.791 297.208,260.917 292.472 C 261.805 291.883,263.126 291.040,263.853 290.600 C 265.648 289.514,272.580 284.481,274.322 283.000 C 280.397 277.835,288.515 269.767,290.377 267.044 C 290.694 266.580,291.113 266.091,291.308 265.957 C 291.502 265.824,291.963 265.253,292.331 264.689 C 292.699 264.125,294.485 261.599,296.300 259.076 C 298.115 256.553,299.600 254.325,299.600 254.123 C 299.600 253.922,300.120 253.047,300.755 252.179 C 302.040 250.422,306.000 242.955,306.000 242.289 C 306.000 242.055,306.244 241.579,306.543 241.231 C 306.842 240.884,307.596 239.250,308.218 237.600 C 308.840 235.950,309.463 234.420,309.602 234.200 C 309.740 233.980,310.201 232.720,310.625 231.400 C 311.049 230.080,311.507 228.910,311.643 228.800 C 311.779 228.690,311.987 228.060,312.107 227.400 C 312.226 226.740,312.625 225.210,312.994 224.000 C 313.977 220.772,314.364 219.091,315.251 214.200 C 315.691 211.780,316.221 209.240,316.430 208.556 C 317.862 203.879,317.812 177.305,316.369 175.820 C 316.166 175.611,315.999 174.981,315.999 174.420 C 315.997 172.847,314.296 164.764,313.049 160.400 C 312.703 159.190,312.309 157.750,312.174 157.200 C 312.039 156.650,311.695 155.660,311.409 155.000 C 311.123 154.340,310.676 153.080,310.416 152.200 C 310.156 151.320,309.697 150.060,309.396 149.400 C 309.096 148.740,308.458 147.300,307.979 146.200 C 306.875 143.663,302.547 134.854,301.894 133.814 C 301.622 133.381,300.635 131.831,299.700 130.368 C 298.765 128.906,298.000 127.583,298.000 127.428 C 298.000 127.078,296.697 125.333,292.606 120.204 C 290.850 118.002,289.140 115.840,288.806 115.400 C 287.704 113.946,278.233 104.572,276.453 103.173 C 275.492 102.418,274.495 101.600,274.237 101.356 C 273.328 100.494,266.804 95.600,266.565 95.600 C 266.431 95.600,264.944 94.646,263.261 93.480 C 261.577 92.314,259.750 91.148,259.200 90.889 C 258.650 90.630,257.480 89.965,256.600 89.412 C 255.720 88.858,254.730 88.289,254.400 88.146 C 254.070 88.004,252.162 87.103,250.160 86.144 C 248.158 85.185,246.356 84.400,246.154 84.400 C 245.953 84.400,245.115 84.039,244.292 83.598 C 243.469 83.157,241.401 82.333,239.698 81.766 C 237.994 81.200,236.240 80.576,235.800 80.380 C 235.360 80.185,233.290 79.568,231.200 79.010 C 229.110 78.452,226.770 77.805,226.000 77.572 C 225.230 77.339,222.350 76.793,219.600 76.358 C 216.850 75.923,213.700 75.408,212.600 75.213 C 209.512 74.666,205.602 74.713,205.420 75.300 M147.600 109.000 C 147.600 112.015,147.561 112.041,145.760 110.240 C 144.292 108.772,144.119 108.400,144.905 108.400 C 145.183 108.400,145.748 107.950,146.161 107.400 C 147.316 105.862,147.600 106.177,147.600 109.000 M253.455 107.000 C 253.582 107.330,254.007 107.600,254.400 107.600 C 255.152 107.600,255.760 108.617,255.378 109.236 C 255.254 109.436,254.816 109.600,254.403 109.600 C 253.991 109.600,253.540 109.960,253.400 110.400 C 252.903 111.967,252.400 111.163,252.400 108.800 C 252.400 106.529,252.929 105.628,253.455 107.000 M277.924 115.704 C 278.039 117.095,277.815 117.456,274.924 120.525 C 271.547 124.112,268.156 128.150,264.752 132.638 C 263.569 134.199,261.508 136.899,260.173 138.638 C 257.816 141.707,250.708 152.380,249.674 154.400 C 245.332 162.890,243.816 163.026,236.350 155.598 C 230.478 149.755,229.737 146.958,233.550 145.025 C 234.567 144.509,236.345 143.482,237.501 142.743 C 238.656 142.005,241.051 140.500,242.823 139.400 C 249.632 135.174,265.624 122.976,271.000 117.909 C 275.836 113.351,277.681 112.763,277.924 115.704 M127.496 116.700 C 129.844 118.866,136.369 124.324,140.800 127.828 C 142.450 129.132,143.860 130.335,143.933 130.500 C 144.007 130.665,144.236 130.800,144.442 130.800 C 144.648 130.800,145.938 131.678,147.309 132.752 C 150.211 135.026,159.893 141.361,164.800 144.197 C 166.670 145.277,168.332 146.350,168.494 146.581 C 170.027 148.767,164.635 155.921,158.492 159.851 C 155.333 161.872,154.261 161.600,152.499 158.330 C 151.895 157.207,151.218 155.999,150.996 155.644 C 150.774 155.290,149.819 153.740,148.875 152.200 C 144.916 145.741,143.919 144.275,138.943 137.600 C 133.754 130.639,128.202 123.866,124.132 119.530 C 119.994 115.123,123.023 112.574,127.496 116.700 M172.400 127.800 C 172.400 128.570,172.220 129.200,172.000 129.200 C 171.780 129.200,171.600 129.020,171.600 128.800 C 171.600 128.580,171.330 128.400,171.000 128.400 C 170.670 128.400,170.400 128.223,170.400 128.008 C 170.400 127.792,169.950 127.502,169.400 127.364 C 167.721 126.943,168.284 126.400,170.400 126.400 L 172.400 126.400 172.400 127.800 M231.200 126.800 C 231.200 127.020,230.865 127.200,230.456 127.200 C 230.047 127.200,229.374 127.650,228.961 128.200 C 227.826 129.711,226.800 129.521,226.800 127.800 L 226.800 126.400 229.000 126.400 C 230.210 126.400,231.200 126.580,231.200 126.800 M117.394 137.580 C 117.530 138.008,117.992 138.470,118.420 138.606 C 118.849 138.743,119.200 139.177,119.200 139.571 C 119.200 139.965,119.650 140.626,120.200 141.039 C 120.750 141.452,121.200 142.010,121.200 142.279 C 121.200 142.549,121.920 143.482,122.800 144.353 C 123.680 145.224,124.400 146.131,124.400 146.369 C 124.400 146.606,124.568 146.800,124.773 146.800 C 124.978 146.800,125.273 147.199,125.427 147.686 C 125.582 148.173,126.314 149.160,127.054 149.879 C 127.794 150.598,128.400 151.440,128.400 151.750 C 128.400 152.060,128.670 152.418,129.000 152.545 C 129.330 152.671,129.600 153.141,129.600 153.587 C 129.600 154.034,129.780 154.400,130.000 154.400 C 130.220 154.400,130.400 154.604,130.400 154.854 C 130.400 155.104,130.850 155.725,131.400 156.235 C 131.950 156.745,132.400 157.421,132.400 157.738 C 132.400 158.055,132.670 158.418,133.000 158.545 C 133.330 158.671,133.600 159.128,133.600 159.560 C 133.600 159.995,133.958 160.460,134.400 160.600 C 134.906 160.760,135.200 161.205,135.200 161.809 C 135.200 162.334,135.628 163.192,136.152 163.716 C 138.388 165.952,137.888 166.987,134.400 167.343 C 132.970 167.489,131.740 167.786,131.667 168.004 C 131.593 168.222,131.278 168.400,130.967 168.400 C 130.655 168.400,130.400 168.554,130.400 168.743 C 130.400 168.931,128.920 169.187,127.111 169.311 C 125.301 169.435,123.756 169.731,123.677 169.968 C 123.598 170.206,122.573 170.400,121.400 170.400 C 120.227 170.400,119.206 170.582,119.132 170.804 C 119.058 171.027,117.243 171.324,115.099 171.465 C 112.954 171.605,111.200 171.874,111.200 172.060 C 111.200 172.247,110.315 172.400,109.233 172.400 C 108.152 172.400,107.207 172.555,107.133 172.745 C 107.060 172.935,105.504 173.218,103.676 173.375 L 100.353 173.659 100.634 172.130 C 100.788 171.288,101.069 170.540,101.257 170.467 C 101.446 170.393,101.600 169.553,101.600 168.600 C 101.600 167.647,101.803 166.799,102.051 166.716 C 102.299 166.634,102.592 165.629,102.702 164.483 C 102.812 163.337,103.059 162.400,103.251 162.400 C 103.443 162.400,103.600 162.055,103.600 161.633 C 103.600 161.212,103.798 160.801,104.039 160.720 C 104.281 160.640,104.574 159.730,104.690 158.698 C 104.839 157.379,105.111 156.755,105.607 156.598 C 106.081 156.447,106.401 155.785,106.581 154.587 C 106.728 153.604,107.018 152.800,107.225 152.800 C 107.431 152.800,107.600 152.260,107.600 151.600 C 107.600 150.940,107.777 150.400,107.992 150.400 C 108.208 150.400,108.498 149.950,108.636 149.400 C 108.774 148.850,109.047 148.400,109.243 148.400 C 109.440 148.400,109.600 147.950,109.600 147.400 C 109.600 146.850,109.768 146.400,109.973 146.400 C 110.178 146.400,110.470 146.010,110.621 145.534 C 110.772 145.058,111.324 144.239,111.848 143.716 C 112.372 143.192,112.800 142.334,112.800 141.809 C 112.800 141.205,113.094 140.760,113.600 140.600 C 114.085 140.446,114.400 139.995,114.400 139.454 C 114.400 137.462,116.866 135.917,117.394 137.580 M284.404 137.943 C 285.062 138.572,285.600 139.382,285.600 139.743 C 285.600 140.104,285.780 140.400,286.000 140.400 C 286.220 140.400,286.400 140.670,286.400 141.000 C 286.400 141.330,286.580 141.600,286.800 141.600 C 287.020 141.600,287.200 141.862,287.200 142.182 C 287.200 142.502,287.650 143.214,288.200 143.764 C 288.750 144.314,289.200 145.137,289.200 145.594 C 289.200 146.051,289.470 146.529,289.800 146.655 C 290.130 146.782,290.400 147.239,290.400 147.671 C 290.400 148.104,290.670 148.727,291.000 149.057 C 291.330 149.387,291.600 150.262,291.600 151.002 C 291.600 151.982,291.811 152.413,292.379 152.593 C 292.933 152.769,293.234 153.352,293.424 154.620 C 293.571 155.599,293.850 156.400,294.045 156.400 C 294.240 156.400,294.400 156.670,294.400 157.000 C 294.400 157.330,294.557 157.600,294.748 157.600 C 294.939 157.600,295.192 158.449,295.309 159.487 C 295.426 160.525,295.719 161.440,295.961 161.520 C 296.202 161.601,296.400 161.922,296.400 162.233 C 296.400 162.545,296.562 162.800,296.759 162.800 C 296.957 162.800,297.245 164.060,297.400 165.600 C 297.555 167.140,297.843 168.400,298.041 168.400 C 298.238 168.400,298.400 169.120,298.400 170.000 C 298.400 170.880,298.580 171.600,298.800 171.600 C 299.020 171.600,299.200 172.058,299.200 172.617 L 299.200 173.633 296.100 173.358 C 294.395 173.207,292.940 172.930,292.867 172.742 C 292.793 172.554,291.848 172.400,290.767 172.400 C 289.685 172.400,288.800 172.245,288.800 172.055 C 288.800 171.864,287.053 171.618,284.917 171.506 C 282.558 171.383,280.975 171.126,280.884 170.851 C 280.797 170.591,279.829 170.400,278.600 170.400 C 277.427 170.400,276.404 170.213,276.328 169.985 C 276.252 169.756,274.887 169.460,273.295 169.327 C 271.703 169.193,270.400 168.930,270.400 168.742 C 270.400 168.554,269.965 168.400,269.433 168.400 C 268.902 168.400,268.407 168.222,268.333 168.004 C 268.260 167.786,267.030 167.489,265.600 167.343 C 262.252 167.002,261.554 165.784,263.656 163.954 C 264.065 163.598,264.510 162.749,264.647 162.066 C 264.790 161.349,265.213 160.723,265.648 160.585 C 266.061 160.454,266.400 159.993,266.400 159.560 C 266.400 159.128,266.670 158.671,267.000 158.545 C 267.330 158.418,267.600 157.884,267.600 157.357 C 267.600 156.831,267.768 156.400,267.973 156.400 C 268.178 156.400,268.457 156.049,268.594 155.620 C 268.730 155.192,269.170 154.736,269.573 154.609 C 269.977 154.480,270.412 153.842,270.544 153.182 C 270.678 152.512,271.553 151.238,272.536 150.283 C 273.500 149.346,274.429 148.140,274.599 147.603 C 274.769 147.067,275.514 146.040,276.254 145.321 C 276.994 144.602,277.600 143.824,277.600 143.591 C 277.600 143.358,278.320 142.483,279.200 141.646 C 280.080 140.809,280.800 139.838,280.800 139.489 C 280.800 139.140,281.151 138.743,281.580 138.606 C 282.008 138.470,282.470 138.008,282.606 137.580 C 282.925 136.575,282.984 136.586,284.404 137.943 M199.190 148.626 C 198.976 149.190,198.800 149.726,198.800 149.816 C 198.800 149.906,198.260 151.159,197.600 152.600 C 196.940 154.041,196.400 155.445,196.400 155.721 C 196.400 155.997,196.138 156.597,195.817 157.054 C 195.496 157.512,194.723 158.857,194.099 160.043 C 192.752 162.602,190.055 166.964,189.175 168.008 C 188.831 168.416,188.205 169.256,187.784 169.875 C 186.538 171.705,177.259 180.800,176.638 180.800 C 176.324 180.800,176.007 180.935,175.933 181.100 C 175.285 182.559,163.113 189.117,157.226 191.179 C 154.796 192.030,154.838 192.481,157.422 193.302 C 159.389 193.927,169.175 198.524,170.200 199.305 C 170.420 199.472,171.860 200.434,173.400 201.441 C 174.940 202.449,176.572 203.617,177.026 204.037 C 177.480 204.456,178.040 204.800,178.270 204.800 C 178.500 204.800,179.026 205.250,179.439 205.800 C 179.852 206.350,180.390 206.800,180.634 206.800 C 181.085 206.800,184.654 210.462,186.304 212.619 C 189.121 216.299,190.351 218.006,191.480 219.800 C 193.321 222.729,197.682 231.410,198.763 234.300 C 199.277 235.675,199.760 236.800,199.837 236.800 C 200.012 236.800,201.536 233.470,203.041 229.800 C 203.673 228.260,204.591 226.280,205.082 225.400 C 205.573 224.520,206.271 223.260,206.634 222.600 C 209.574 217.250,218.829 206.000,220.291 206.000 C 220.571 206.000,220.800 205.859,220.800 205.686 C 220.800 204.550,238.554 194.000,240.466 194.000 C 241.166 194.000,244.400 192.383,244.400 192.033 C 244.400 191.843,243.905 191.563,243.300 191.413 C 240.539 190.724,230.801 185.815,226.666 183.027 C 224.686 181.692,222.610 180.348,222.054 180.040 C 220.725 179.305,213.566 172.136,212.350 170.322 C 211.827 169.543,210.450 167.533,209.289 165.855 C 207.153 162.767,202.000 152.976,202.000 152.004 C 202.000 151.252,200.261 147.636,199.890 147.616 C 199.720 147.607,199.405 148.062,199.190 148.626 M200.576 182.119 C 200.861 182.404,201.217 183.025,201.368 183.498 C 201.518 183.972,201.983 184.467,202.400 184.600 C 202.817 184.733,203.267 185.183,203.400 185.600 C 203.533 186.017,203.983 186.467,204.400 186.600 C 204.817 186.733,205.267 187.183,205.400 187.600 C 205.533 188.017,205.983 188.467,206.400 188.600 C 206.817 188.733,207.270 189.192,207.406 189.620 C 207.543 190.049,207.809 190.400,207.998 190.400 C 209.519 190.400,210.071 192.995,208.627 193.358 C 208.091 193.492,207.542 193.952,207.406 194.380 C 207.270 194.809,206.820 195.267,206.405 195.398 C 205.990 195.530,205.594 196.034,205.525 196.519 C 205.447 197.072,205.072 197.447,204.519 197.525 C 204.034 197.594,203.530 197.990,203.398 198.405 C 203.267 198.820,202.817 199.267,202.400 199.400 C 201.983 199.533,201.518 200.028,201.368 200.502 C 200.677 202.677,199.323 202.677,198.632 200.502 C 198.482 200.028,198.017 199.533,197.600 199.400 C 197.183 199.267,196.733 198.820,196.602 198.405 C 196.470 197.990,195.966 197.594,195.481 197.525 C 194.928 197.447,194.553 197.072,194.475 196.519 C 194.406 196.034,194.001 195.527,193.575 195.392 C 193.149 195.257,192.800 194.978,192.800 194.773 C 192.800 194.568,192.612 194.400,192.383 194.400 C 190.565 194.400,189.876 191.147,191.580 190.606 C 192.009 190.470,192.467 190.017,192.600 189.600 C 192.733 189.183,193.180 188.733,193.595 188.602 C 194.010 188.470,194.406 187.966,194.475 187.481 C 194.553 186.928,194.928 186.553,195.481 186.475 C 195.966 186.406,196.470 186.010,196.602 185.595 C 196.733 185.180,197.183 184.733,197.600 184.600 C 198.017 184.467,198.480 183.977,198.628 183.510 C 199.154 181.853,199.829 181.371,200.576 182.119 M104.400 211.200 C 104.400 211.420,105.300 211.600,106.400 211.600 C 107.500 211.600,108.400 211.753,108.400 211.941 C 108.400 212.129,110.335 212.406,112.700 212.558 C 115.065 212.710,117.060 213.007,117.133 213.217 C 117.207 213.428,118.407 213.600,119.800 213.600 C 121.423 213.600,122.391 213.773,122.494 214.083 C 122.593 214.379,123.768 214.629,125.528 214.728 C 127.107 214.817,128.400 215.050,128.400 215.245 C 128.400 215.440,128.850 215.600,129.400 215.600 C 129.950 215.600,130.400 215.771,130.400 215.980 C 130.400 216.189,131.480 216.482,132.800 216.632 C 134.120 216.781,135.200 217.060,135.200 217.252 C 135.200 217.443,135.393 217.600,135.629 217.600 C 136.182 217.600,137.200 218.618,137.200 219.171 C 137.200 219.407,137.020 219.600,136.800 219.600 C 136.580 219.600,136.400 219.941,136.400 220.357 C 136.400 220.774,136.130 221.218,135.800 221.345 C 135.470 221.471,135.200 221.928,135.200 222.360 C 135.200 222.793,134.859 223.254,134.442 223.387 C 133.972 223.536,133.585 224.155,133.424 225.014 C 133.281 225.776,132.992 226.400,132.782 226.400 C 132.572 226.400,132.400 226.588,132.400 226.817 C 132.400 227.209,132.087 227.662,130.900 228.985 C 130.625 229.292,130.400 229.736,130.400 229.971 C 130.400 230.207,130.223 230.400,130.008 230.400 C 129.792 230.400,129.511 230.815,129.384 231.323 C 129.256 231.831,128.713 232.576,128.176 232.979 C 127.639 233.382,127.200 234.035,127.200 234.429 C 127.200 234.823,126.840 235.260,126.400 235.400 C 125.960 235.540,125.600 235.940,125.600 236.289 C 125.600 236.638,124.880 237.609,124.000 238.446 C 123.120 239.283,122.400 240.162,122.400 240.400 C 122.400 240.638,121.680 241.517,120.800 242.354 C 119.920 243.191,119.200 244.162,119.200 244.511 C 119.200 244.860,118.851 245.257,118.425 245.392 C 117.999 245.527,117.594 246.034,117.525 246.519 C 117.375 247.573,115.600 248.042,115.600 247.028 C 115.600 246.683,115.432 246.400,115.227 246.400 C 115.022 246.400,114.726 245.995,114.570 245.500 C 114.413 245.005,113.951 244.309,113.543 243.953 C 113.134 243.597,112.800 242.947,112.800 242.509 C 112.800 242.071,112.350 241.374,111.800 240.961 C 111.250 240.548,110.800 239.816,110.800 239.334 C 110.800 238.852,110.530 238.187,110.200 237.857 C 109.870 237.527,109.600 236.884,109.600 236.429 C 109.600 235.973,109.440 235.600,109.243 235.600 C 109.047 235.600,108.774 235.150,108.636 234.600 C 108.498 234.050,108.208 233.600,107.992 233.600 C 107.777 233.600,107.600 233.169,107.600 232.643 C 107.600 232.116,107.330 231.582,107.000 231.455 C 106.623 231.311,106.400 230.699,106.400 229.813 C 106.400 229.036,106.220 228.400,106.000 228.400 C 105.780 228.400,105.600 228.130,105.600 227.800 C 105.600 227.470,105.437 227.200,105.238 227.200 C 105.038 227.200,104.751 226.300,104.600 225.200 C 104.449 224.100,104.162 223.200,103.962 223.200 C 103.763 223.200,103.600 222.840,103.600 222.400 C 103.600 221.960,103.443 221.600,103.251 221.600 C 103.059 221.600,102.812 220.663,102.702 219.517 C 102.592 218.371,102.299 217.366,102.051 217.284 C 101.803 217.201,101.600 216.353,101.600 215.400 C 101.600 214.447,101.449 213.607,101.263 213.533 C 101.078 213.460,100.813 212.815,100.673 212.100 L 100.420 210.800 102.410 210.800 C 103.505 210.800,104.400 210.980,104.400 211.200 M299.200 212.000 C 299.200 212.660,299.020 213.200,298.800 213.200 C 298.580 213.200,298.400 213.920,298.400 214.800 C 298.400 215.680,298.229 216.400,298.020 216.400 C 297.811 216.400,297.518 217.480,297.368 218.800 C 297.219 220.120,296.940 221.200,296.748 221.200 C 296.557 221.200,296.400 221.650,296.400 222.200 C 296.400 222.750,296.222 223.200,296.005 223.200 C 295.787 223.200,295.494 223.920,295.354 224.800 C 295.213 225.680,294.941 226.400,294.749 226.400 C 294.557 226.400,294.400 226.670,294.400 227.000 C 294.400 227.330,294.240 227.600,294.045 227.600 C 293.850 227.600,293.569 228.410,293.421 229.400 C 293.272 230.390,292.982 231.200,292.775 231.200 C 292.569 231.200,292.400 231.470,292.400 231.800 C 292.400 232.130,292.220 232.400,292.000 232.400 C 291.780 232.400,291.600 232.837,291.600 233.371 C 291.600 233.906,291.330 234.613,291.000 234.943 C 290.670 235.273,290.400 235.896,290.400 236.329 C 290.400 236.761,290.130 237.218,289.800 237.345 C 289.470 237.471,289.200 238.031,289.200 238.587 C 289.200 239.144,289.020 239.600,288.800 239.600 C 288.580 239.600,288.400 239.941,288.400 240.357 C 288.400 240.774,288.130 241.218,287.800 241.345 C 287.470 241.471,287.200 241.928,287.200 242.360 C 287.200 242.795,286.842 243.260,286.400 243.400 C 285.894 243.560,285.600 244.005,285.600 244.609 C 285.600 246.637,282.750 248.351,282.475 246.488 C 282.406 246.020,282.010 245.530,281.595 245.398 C 281.180 245.267,280.733 244.817,280.600 244.400 C 280.467 243.983,280.017 243.533,279.600 243.400 C 279.183 243.267,278.717 242.770,278.566 242.293 C 278.415 241.817,277.686 240.840,276.946 240.121 C 276.206 239.402,275.600 238.560,275.600 238.250 C 275.600 237.940,275.330 237.582,275.000 237.455 C 274.670 237.329,274.400 236.872,274.400 236.440 C 274.400 236.005,274.042 235.540,273.600 235.400 C 273.160 235.260,272.800 234.823,272.800 234.429 C 272.800 234.035,272.361 233.382,271.824 232.979 C 271.287 232.576,270.744 231.831,270.616 231.323 C 270.489 230.815,270.208 230.400,269.992 230.400 C 269.777 230.400,269.600 230.207,269.600 229.971 C 269.600 229.736,269.375 229.292,269.100 228.985 C 267.913 227.662,267.600 227.209,267.600 226.817 C 267.600 226.588,267.432 226.400,267.227 226.400 C 267.022 226.400,266.726 225.995,266.570 225.500 C 266.413 225.005,265.951 224.309,265.543 223.953 C 265.134 223.597,264.800 222.947,264.800 222.509 C 264.800 222.071,264.350 221.374,263.800 220.961 C 262.495 219.981,262.353 217.600,263.600 217.600 C 264.040 217.600,264.400 217.446,264.400 217.257 C 264.400 217.068,265.525 216.797,266.900 216.653 C 268.275 216.510,269.460 216.214,269.533 215.996 C 269.607 215.778,270.282 215.600,271.033 215.600 C 271.785 215.600,272.400 215.442,272.400 215.248 C 272.400 215.055,273.515 214.816,274.877 214.717 C 276.267 214.616,277.423 214.332,277.510 214.069 C 277.606 213.782,278.571 213.600,280.000 213.600 C 281.283 213.600,282.394 213.418,282.468 213.196 C 282.542 212.974,284.627 212.677,287.101 212.535 C 289.576 212.394,291.600 212.125,291.600 211.939 C 291.600 211.752,292.320 211.600,293.200 211.600 C 294.080 211.600,294.800 211.420,294.800 211.200 C 294.800 210.980,295.790 210.800,297.000 210.800 C 299.178 210.800,299.200 210.812,299.200 212.000 M158.049 224.225 C 160.439 225.436,166.781 231.622,167.559 233.500 C 167.855 234.215,168.255 234.800,168.449 234.800 C 168.642 234.800,168.800 235.356,168.800 236.036 C 168.800 237.649,167.487 238.790,162.647 241.385 C 160.574 242.496,158.546 243.693,158.139 244.044 C 157.733 244.395,155.390 246.040,152.933 247.698 C 145.178 252.933,134.298 261.429,129.334 266.126 C 124.468 270.730,120.345 268.765,124.846 263.987 C 126.320 262.422,127.967 260.463,135.400 251.437 C 138.177 248.065,149.268 231.868,151.039 228.600 C 154.384 222.424,154.434 222.393,158.049 224.225 M245.678 223.700 C 246.025 223.975,247.390 226.090,248.711 228.400 C 254.803 239.056,270.324 259.822,276.738 265.898 C 278.782 267.835,278.814 270.151,276.800 270.311 C 275.301 270.430,275.082 270.283,270.828 266.294 C 265.496 261.294,253.226 251.775,246.000 247.033 C 243.690 245.517,241.080 243.797,240.200 243.211 C 239.320 242.625,237.520 241.552,236.200 240.827 C 232.573 238.834,231.200 237.685,231.200 236.641 C 231.200 231.933,242.886 221.487,245.678 223.700 M227.999 255.598 C 228.315 256.037,229.159 256.506,229.873 256.640 C 230.655 256.787,231.269 257.186,231.413 257.642 C 231.546 258.059,232.007 258.400,232.440 258.400 C 232.872 258.400,233.329 258.670,233.455 259.000 C 233.582 259.330,234.026 259.600,234.443 259.600 C 234.859 259.600,235.200 259.760,235.200 259.957 C 235.200 260.153,235.650 260.426,236.200 260.564 C 236.750 260.702,237.200 260.992,237.200 261.208 C 237.200 261.423,237.470 261.600,237.800 261.600 C 238.130 261.600,238.400 261.768,238.400 261.973 C 238.400 262.178,238.794 262.471,239.275 262.624 C 239.756 262.776,240.722 263.508,241.422 264.251 C 242.122 264.993,242.898 265.600,243.147 265.600 C 243.396 265.600,243.600 265.768,243.600 265.973 C 243.600 266.178,243.999 266.473,244.486 266.627 C 244.973 266.782,245.960 267.514,246.679 268.254 C 247.398 268.994,248.176 269.600,248.409 269.600 C 248.642 269.600,249.517 270.320,250.354 271.200 C 251.191 272.080,252.162 272.800,252.511 272.800 C 252.860 272.800,253.257 273.151,253.394 273.580 C 253.530 274.008,253.992 274.470,254.420 274.606 C 255.444 274.931,255.462 276.400,254.443 276.400 C 254.026 276.400,253.582 276.670,253.455 277.000 C 253.329 277.330,252.872 277.600,252.440 277.600 C 252.005 277.600,251.540 277.958,251.400 278.400 C 251.260 278.842,250.795 279.200,250.360 279.200 C 249.928 279.200,249.471 279.470,249.345 279.800 C 249.218 280.130,248.774 280.400,248.357 280.400 C 247.941 280.400,247.600 280.580,247.600 280.800 C 247.600 281.020,247.144 281.200,246.587 281.200 C 246.031 281.200,245.471 281.470,245.345 281.800 C 245.218 282.130,244.761 282.400,244.329 282.400 C 243.896 282.400,243.273 282.670,242.943 283.000 C 242.613 283.330,241.906 283.600,241.371 283.600 C 240.837 283.600,240.400 283.780,240.400 284.000 C 240.400 284.220,240.207 284.400,239.971 284.400 C 239.736 284.400,239.273 284.670,238.943 285.000 C 238.613 285.330,237.726 285.600,236.971 285.600 C 236.217 285.600,235.600 285.780,235.600 286.000 C 235.600 286.220,235.330 286.400,235.000 286.400 C 234.670 286.400,234.400 286.557,234.400 286.749 C 234.400 286.941,233.680 287.213,232.800 287.354 C 231.920 287.494,231.200 287.787,231.200 288.005 C 231.200 288.222,230.840 288.400,230.400 288.400 C 229.960 288.400,229.600 288.580,229.600 288.800 C 229.600 289.020,228.851 289.200,227.936 289.200 L 226.273 289.200 226.535 280.500 C 226.680 275.715,226.798 267.975,226.799 263.300 C 226.800 254.818,226.913 254.092,227.999 255.598 M172.400 256.200 C 172.400 256.530,172.580 256.800,172.800 256.800 C 173.060 256.800,173.200 262.467,173.200 273.000 L 173.200 289.200 171.800 289.200 C 171.030 289.200,170.400 289.020,170.400 288.800 C 170.400 288.580,170.040 288.400,169.600 288.400 C 169.160 288.400,168.800 288.237,168.800 288.038 C 168.800 287.838,167.900 287.551,166.800 287.400 C 165.700 287.249,164.800 286.962,164.800 286.762 C 164.800 286.563,164.530 286.400,164.200 286.400 C 163.870 286.400,163.600 286.220,163.600 286.000 C 163.600 285.780,163.163 285.600,162.629 285.600 C 162.094 285.600,161.387 285.330,161.057 285.000 C 160.727 284.670,159.994 284.400,159.429 284.400 C 158.863 284.400,158.400 284.223,158.400 284.008 C 158.400 283.792,157.950 283.502,157.400 283.364 C 156.850 283.226,156.400 282.953,156.400 282.757 C 156.400 282.560,156.027 282.400,155.571 282.400 C 155.116 282.400,154.473 282.130,154.143 281.800 C 153.813 281.470,153.148 281.200,152.666 281.200 C 152.184 281.200,151.452 280.750,151.039 280.200 C 150.626 279.650,149.965 279.200,149.571 279.200 C 149.177 279.200,148.740 278.840,148.600 278.400 C 148.441 277.898,147.995 277.600,147.402 277.600 C 146.882 277.600,146.187 277.330,145.857 277.000 C 145.527 276.670,145.064 276.400,144.829 276.400 C 144.593 276.400,144.400 276.233,144.400 276.029 C 144.400 275.561,145.542 274.400,146.002 274.400 C 146.191 274.400,146.457 274.049,146.594 273.620 C 146.730 273.192,147.230 272.717,147.707 272.566 C 148.183 272.415,149.160 271.686,149.879 270.946 C 150.598 270.206,151.372 269.600,151.600 269.600 C 151.828 269.600,152.602 268.994,153.321 268.254 C 154.040 267.514,155.027 266.782,155.514 266.627 C 156.001 266.473,156.400 266.178,156.400 265.973 C 156.400 265.768,156.604 265.600,156.853 265.600 C 157.102 265.600,157.878 264.993,158.578 264.251 C 159.278 263.508,160.244 262.776,160.725 262.624 C 161.206 262.471,161.600 262.178,161.600 261.973 C 161.600 261.768,161.793 261.600,162.029 261.600 C 162.264 261.600,162.708 261.375,163.015 261.100 C 164.338 259.913,164.791 259.600,165.183 259.600 C 165.412 259.600,165.600 259.440,165.600 259.243 C 165.600 259.047,166.050 258.774,166.600 258.636 C 167.150 258.498,167.600 258.208,167.600 257.992 C 167.600 257.777,167.870 257.600,168.200 257.600 C 168.530 257.600,168.800 257.420,168.800 257.200 C 168.800 256.980,169.166 256.800,169.613 256.800 C 170.059 256.800,170.529 256.530,170.655 256.200 C 170.782 255.870,171.226 255.600,171.643 255.600 C 172.059 255.600,172.400 255.870,172.400 256.200 " stroke="none" fill="#040404" fill-rule="evenodd"></path></g></svg>
